<svg xmlns="http://www.w3.org/2000/svg" id="Comp-1" shape-rendering="geometricPrecision" style="white-space:pre" text-rendering="geometricPrecision" viewBox="0 0 365 240">
  <defs>
    <linearGradient id="Gradient-1" x1="74.468" x2="74.468" y1="45.668" y2="173.926" gradientUnits="userSpaceOnUse">
      <stop offset="0" stop-color="#728787" stop-opacity=".25"/>
      <stop offset=".27" stop-color="#728787" stop-opacity=".19"/>
      <stop offset=".54" stop-color="#728787" stop-opacity=".12"/>
      <stop offset=".77" stop-color="#728787" stop-opacity=".11"/>
      <stop offset="1" stop-color="#728787" stop-opacity=".1"/>
    </linearGradient>
    <linearGradient id="Gradient-2" x1="12531.5" x2="28290.2" y1="323.584" y2="323.584" gradientUnits="userSpaceOnUse">
      <stop offset="0" stop-color="#728787" stop-opacity=".25"/>
      <stop offset=".27" stop-color="#728787" stop-opacity=".19"/>
      <stop offset=".54" stop-color="#728787" stop-opacity=".12"/>
      <stop offset=".77" stop-color="#728787" stop-opacity=".11"/>
      <stop offset="1" stop-color="#728787" stop-opacity=".1"/>
    </linearGradient>
    <radialGradient id="Gradient-0" cx="0" cy="0" r="182.166" fx="0" fy="0" gradientUnits="userSpaceOnUse">
      <stop offset="0" stop-color="#312eff" stop-opacity=".365"/>
      <stop offset=".5" stop-color="#2469d8" stop-opacity=".588"/>
      <stop offset="1" stop-color="#2ea8ff" stop-opacity=".294"/>
    </radialGradient>
  </defs>
  <style>
    @keyframes a0_t{0%,94.4956%,to{transform:rotate(0deg) translate(-237.503px,-86.566px)}47.484%{transform:rotate(9deg) translate(-237.503px,-86.566px)}}@keyframes a0_mo{0%{offset-distance:0}47.4841%{offset-distance:50%}94.4956%,to{offset-distance:100%}}@keyframes a1_t{0%,94.4956%,to{transform:rotate(0deg) translate(-237.503px,-86.566px)}47.484%{transform:rotate(9deg) translate(-237.503px,-86.566px)}}@keyframes a1_mo{0%{offset-distance:0}47.4841%{offset-distance:50%}94.4956%,to{offset-distance:100%}}@keyframes a2_t{0%,94.4956%,to{transform:rotate(0deg) translate(-237.503px,-86.566px)}47.484%{transform:rotate(9deg) translate(-237.503px,-86.566px)}}@keyframes a2_mo{0%{offset-distance:0}47.4841%{offset-distance:50%}94.4956%,to{offset-distance:100%}}@keyframes a3_t{0%,94.4956%,to{transform:rotate(0deg) translate(-237.503px,-86.566px)}47.484%{transform:rotate(9deg) translate(-237.503px,-86.566px)}}@keyframes a3_mo{0%{offset-distance:0}47.4841%{offset-distance:50%}94.4956%,to{offset-distance:100%}}@keyframes a4_t{0%,94.4956%,to{transform:rotate(0deg) translate(-237.503px,-86.566px)}47.484%{transform:rotate(9deg) translate(-237.503px,-86.566px)}}@keyframes a4_mo{0%{offset-distance:0}47.4841%{offset-distance:50%}94.4956%,to{offset-distance:100%}}@keyframes a5_t{0%,94.4956%,to{transform:rotate(0deg) translate(-3.2px,-4.8px)}47.484%{transform:rotate(36deg) translate(-3.2px,-4.8px)}63.5483%{transform:rotate(-19.6deg) translate(-3.2px,-4.8px)}72.2891%{transform:rotate(4.251256deg) translate(-3.2px,-4.8px)}}@keyframes a5_mo{0%{offset-distance:0}47.4841%{offset-distance:24.157%}72.0529%{offset-distance:68.586%}94.4956%,to{offset-distance:100%}}@keyframes a6_t{0%,94.4956%,to{transform:rotate(0deg) translate(-3.2px,-4.8px)}47.484%{transform:rotate(36deg) translate(-3.2px,-4.8px)}63.5483%{transform:rotate(-19.6deg) translate(-3.2px,-4.8px)}72.2891%{transform:rotate(4.251256deg) translate(-3.2px,-4.8px)}}@keyframes a6_mo{0%{offset-distance:0}47.4841%{offset-distance:24.157%}72.0529%{offset-distance:68.586%}94.4956%,to{offset-distance:100%}}@keyframes a7_t{0%,94.4956%,to{transform:rotate(0deg) translate(-3.2px,-4.8px)}47.484%{transform:rotate(36deg) translate(-3.2px,-4.8px)}63.5483%{transform:rotate(-19.6deg) translate(-3.2px,-4.8px)}72.2891%{transform:rotate(4.251256deg) translate(-3.2px,-4.8px)}}@keyframes a7_mo{0%{offset-distance:0}47.4841%{offset-distance:24.157%}72.0529%{offset-distance:68.586%}94.4956%,to{offset-distance:100%}}@keyframes a8_t{0%,94.4956%,to{transform:rotate(0deg) translate(-127.003px,-93.509px)}47.484%{transform:rotate(10deg) translate(-127.003px,-93.509px)}}@keyframes a8_mo{0%{offset-distance:0}47.4841%{offset-distance:50%}94.4956%,to{offset-distance:100%}}@keyframes a9_t{0%,94.4956%,to{transform:rotate(0deg) translate(-127.003px,-93.509px)}47.484%{transform:rotate(10deg) translate(-127.003px,-93.509px)}}@keyframes a9_mo{0%{offset-distance:0}47.4841%{offset-distance:50%}94.4956%,to{offset-distance:100%}}@keyframes a10_t{0%,94.4956%,to{transform:rotate(0deg) translate(-127.003px,-93.509px)}47.484%{transform:rotate(10deg) translate(-127.003px,-93.509px)}}@keyframes a10_mo{0%{offset-distance:0}47.4841%{offset-distance:50%}94.4956%,to{offset-distance:100%}}@keyframes a11_t{0%,94.4956%,to{transform:rotate(0deg) translate(-127.003px,-93.509px)}47.484%{transform:rotate(10deg) translate(-127.003px,-93.509px)}}@keyframes a11_mo{0%{offset-distance:0}47.4841%{offset-distance:50%}94.4956%,to{offset-distance:100%}}@keyframes a12_t{0%,94.4956%,to{transform:rotate(0deg) translate(-127.003px,-93.509px)}47.484%{transform:rotate(10deg) translate(-127.003px,-93.509px)}}@keyframes a12_mo{0%{offset-distance:0}47.4841%{offset-distance:50%}94.4956%,to{offset-distance:100%}}@keyframes a13_t{0%,94.4956%,to{transform:rotate(0deg) translate(-272.824px,-50.406px)}20.5527%{transform:rotate(5.612903deg) translate(-272.824px,-50.406px)}23.1514%{transform:rotate(42.3deg) translate(-272.824px,-50.406px)}36.617%{transform:rotate(10deg) translate(-272.824px,-50.406px)}58.1148%{transform:rotate(-30.7deg) translate(-272.824px,-50.406px)}}@keyframes a13_mo{0%{offset-distance:0}20.5528%{offset-distance:32.896%}36.6171%{offset-distance:38.829%}58.1148%{offset-distance:81.649%}94.4956%,to{offset-distance:100%}}@keyframes a14_t{0%,94.4956%,to{transform:rotate(0deg) translate(-272.824px,-50.406px)}20.5527%{transform:rotate(5.612903deg) translate(-272.824px,-50.406px)}23.1514%{transform:rotate(42.3deg) translate(-272.824px,-50.406px)}36.617%{transform:rotate(10deg) translate(-272.824px,-50.406px)}58.1148%{transform:rotate(-30.7deg) translate(-272.824px,-50.406px)}}@keyframes a14_mo{0%{offset-distance:0}20.5528%{offset-distance:32.896%}36.6171%{offset-distance:38.829%}58.1148%{offset-distance:81.649%}94.4956%,to{offset-distance:100%}}@keyframes a15_t{0%,94.4956%,to{transform:rotate(0deg) translate(-272.824px,-50.406px)}20.5527%{transform:rotate(5.612903deg) translate(-272.824px,-50.406px)}23.1514%{transform:rotate(42.3deg) translate(-272.824px,-50.406px)}36.617%{transform:rotate(10deg) translate(-272.824px,-50.406px)}58.1148%{transform:rotate(-30.7deg) translate(-272.824px,-50.406px)}}@keyframes a15_mo{0%{offset-distance:0}20.5528%{offset-distance:32.896%}36.6171%{offset-distance:38.829%}58.1148%{offset-distance:81.649%}94.4956%,to{offset-distance:100%}}@keyframes a16_t{0%,94.4956%,to{transform:rotate(0deg) translate(-172.873px,-31.113px)}47.484%{transform:rotate(10deg) translate(-172.873px,-31.113px)}}@keyframes a16_mo{0%{offset-distance:0}47.4841%{offset-distance:50%}94.4956%,to{offset-distance:100%}}@keyframes a17_t{0%,94.4956%,to{transform:rotate(0deg) translate(-172.873px,-31.113px)}47.484%{transform:rotate(10deg) translate(-172.873px,-31.113px)}}@keyframes a17_mo{0%{offset-distance:0}47.4841%{offset-distance:50%}94.4956%,to{offset-distance:100%}}@keyframes a18_t{0%,94.4956%,to{transform:rotate(0deg) translate(-172.873px,-31.113px)}47.484%{transform:rotate(10deg) translate(-172.873px,-31.113px)}}@keyframes a18_mo{0%{offset-distance:0}47.4841%{offset-distance:50%}94.4956%,to{offset-distance:100%}}
  </style>
  <g id="Layer-1" opacity="1" transform="translate(-10000 -10000)">
    <g id="Layer-1-2" opacity="1">
      <path id="Path-1" fill="#5bb2ff" d="M60.818-14.57a2.686 2.686 0 1 1 0-5.372 2.686 2.686 0 0 1 0 5.372" transform="translate(10182.5 10120)"/>
      <path id="Path-1-2" fill="#ff3eb9" d="M95.348-83.652a1.92 1.92 0 0 1 0-3.838 1.919 1.919 0 0 1 0 3.838" transform="translate(10182.5 10120)"/>
      <path id="Path-1-3" fill="#ff3eb9" d="M137.168-24.164a1.919 1.919 0 1 1 .001-3.837 1.919 1.919 0 0 1-.001 3.837" transform="translate(10182.5 10120)"/>
      <path id="Path-1-4" fill="#5bb2ff" d="M70.026-30.689a1.919 1.919 0 1 1 0-3.838 1.919 1.919 0 0 1 0 3.838" transform="translate(10182.5 10120)"/>
      <path id="Path-1-5" fill="#5bb2ff" d="M128.344-4.591a1.918 1.918 0 1 1 0-3.835 1.918 1.918 0 0 1 0 3.835" transform="translate(10182.5 10120)"/>
      <path id="Path-1-6" fill="#e9efee" d="M67.724.784a1.92 1.92 0 1 1 0-3.839 1.92 1.92 0 0 1 0 3.839" transform="translate(10182.5 10120)"/>
      <path id="Path-1-7" fill="#cdd9d7" d="M84.605-67.533a1.919 1.919 0 1 1 .001-3.837 1.919 1.919 0 0 1-.001 3.837" transform="translate(10182.5 10120)"/>
      <path id="Path-1-8" fill="#cdd9d7" d="M157.113-46.433a12.743 12.743 0 0 0-9.962 5.903c-.302.482-.696 1.012-.487 1.606a1.055 1.055 0 0 0 1.094.731 1.383 1.383 0 0 0 .851-2.133 1.38 1.38 0 0 0-.708-.534c-1.394-.594-2.799.325-3.934 1.058-2.586 1.671-5.43 3.182-8.563 3.372-2.899.176-6.008-.961-7.62-3.476-.283-.44.418-.847.699-.409 1.599 2.494 4.832 3.389 7.643 3.004a14.88 14.88 0 0 0 4.782-1.624 29.64 29.64 0 0 0 2.256-1.313 14.399 14.399 0 0 1 2.213-1.269c1.29-.53 2.998-.489 3.9.732.84 1.139.191 3.035-1.216 3.355a1.896 1.896 0 0 1-2.192-1.333 1.906 1.906 0 0 1-.034-.928c.14-.671.645-1.327 1.036-1.875a13.552 13.552 0 0 1 10.242-5.677c.521-.026.519.784 0 .81" transform="translate(10182.5 10120)"/>
      <path id="Path-1-9" fill="#cdd9d7" d="M43.657-21.919a10.135 10.135 0 0 0 4.631-7.963c.023-.452.091-.973-.284-1.304a.84.84 0 0 0-1.043-.083 1.103 1.103 0 0 0-.262 1.31 1.101 1.101 0 0 0 1.196.597c1.198-.127 1.818-1.311 2.322-2.26 1.148-2.163 2.538-4.315 4.641-5.662 1.945-1.247 4.544-1.662 6.639-.541.366.196.037.75-.328.555-2.077-1.112-4.669-.481-6.472.877a11.817 11.817 0 0 0-2.692 2.983 23.738 23.738 0 0 0-1.058 1.786c-.296.61-.646 1.192-1.045 1.74-.69.869-1.893 1.501-2.992 1.003a1.77 1.77 0 0 1-.456-2.801 1.513 1.513 0 0 1 2.423.707c.113.562.115 1.141.007 1.704a10.787 10.787 0 0 1-4.914 7.914c-.351.22-.664-.343-.313-.562" transform="translate(10182.5 10120)"/>
      <path id="Path-1-10" fill="#cdd9d7" d="M109.854-75.053a10.131 10.131 0 0 0 7.924-4.695c.24-.384.553-.805.387-1.277a.84.84 0 0 0-.87-.582 1.103 1.103 0 0 0-.677 1.697c.136.2.334.348.563.424 1.108.473 2.226-.258 3.129-.841 2.057-1.329 4.319-2.53 6.811-2.682 2.305-.14 4.778.765 6.06 2.765.225.35-.332.673-.556.325-1.272-1.984-3.843-2.697-6.078-2.39-1.333.21-2.619.647-3.804 1.292-.615.319-1.21.672-1.794 1.044-.556.388-1.145.726-1.76 1.01-1.027.422-2.385.389-3.102-.582a1.777 1.777 0 0 1-.187-1.578 1.769 1.769 0 0 1 1.154-1.091 1.513 1.513 0 0 1 1.77 1.799 4.408 4.408 0 0 1-.824 1.491 10.772 10.772 0 0 1-8.146 4.515c-.414.021-.413-.624 0-.644" transform="translate(10182.5 10120)"/>
      <path id="Path-1-11" fill="#cdd9d7" d="M108.393-54.649h1.918v6.306h-1.918v-6.306" transform="translate(10182.5 10120)"/>
      <path id="Path-1-12" fill="#b1c1c0" d="m139.41-59.048-1.333-1.334 4.381-4.382 1.333 1.334-4.381 4.382" transform="translate(10182.5 10120)"/>
      <path id="Path-1-13" fill="#b1c1c0" d="m85.473-45.798-1.334 1.334-4.38-4.382 1.333-1.334 4.381 4.382" transform="translate(10182.5 10120)"/>
      <path id="Path-1-14" fill="#ff3eb9" d="m139.954 8.702-1.333 1.333-4.381-4.383 1.334-1.332 4.38 4.382" transform="translate(10182.5 10120)"/>
    </g>
  </g>
  <path id="Path-1-15" fill="url(#Gradient-0)" fill-opacity=".3" d="M36.916 40.254c7.051-.402 15.8-5.18 22.602-7.294a1071.146 1071.146 0 0 1 24.248-7.201 1055.782 1055.782 0 0 1 85.657-20.528c2.693-.529 5.39-1.046 8.092-1.549a57.242 57.242 0 0 0-18.908-22.687c.21-1.988.316-3.986.319-5.986 0-31.602-25.278-57.221-56.473-57.221a55.61 55.61 0 0 0-27.406 7.188C52.968-89.534 24.151-98.316-7.378-98.316c-44.802 0-84.132 17.733-106.418 44.436L-9.057-36.202l64.239 10.838c-73.233 2.184-146.693 4.354-219.715-.771a57.793 57.793 0 0 0-8.333 72.997c0 1.144.048 2.279.134 3.404 1.86.532 3.656 1.049 5.267 1.387a1157.214 1157.214 0 0 0 78.099 13.706c-19.306 11.894-42.818 13.577-65.088 18.613 10.784 8.894 25.429 14.344 41.567 14.344H127.4c26.019 0 47.109-18.096 47.109-40.422a57.4 57.4 0 0 0 7.657-21.003c-48.145 4.644-96.891.612-145.25 3.363" transform="translate(182.508 141.174)"/>
  <g id="Path-1-16">
    <path fill="url(#Gradient-1)" d="M115.591 13.5a3.568 3.568 0 0 0-1.557-.683c-.597-.137-1.206-.223-1.813-.318l-7.855-1.132a9.278 9.278 0 0 0-2.405-.128 3.05 3.05 0 0 0-2.093 1.084 1.62 1.62 0 0 0-.364 1.019c.044.374.165.736.357 1.06.076.151.141.308.195.468.075.361.169.717.281 1.068a.842.842 0 0 0 .134.21.486.486 0 0 1 0 .054c-.087.44.191.9.067 1.324-.109.363-.463.582-.686.885a1.332 1.332 0 0 0-.032 1.47c.239.37.673.622.797 1.046.163.558-.277 1.096-.67 1.527a23.595 23.595 0 0 0-1.997 2.515 1.55 1.55 0 0 0-.319.748c-.035.554.498 1.043.405 1.595-.073.433-.498.698-.864.956-1.356.892-2.444 2.327-2.553 3.949a13.83 13.83 0 0 0-3.088-7.012c-.457-.549-.958-1.1-1.146-1.795-.07-.277-.083-.574-.178-.842-.32-.844-1.334-1.208-1.778-1.986-.319-.548-.319-1.252-.714-1.734-.396-.481-1.018-.589-1.359-1.055a6.615 6.615 0 0 1-.434-.982 2.157 2.157 0 0 0-.737-.812.518.518 0 0 0 .169-.377c0-.372-.37-.618-.693-.803a20.18 20.18 0 0 1-1.215-.755 2.852 2.852 0 0 0 1.088-.89c.354-.571.5-1.246.414-1.912a2.401 2.401 0 0 0-.571-1.463c-.201-.214-.453-.368-.663-.569-.546-.532-.731-1.318-.957-2.045-.3-.956-.769-1.962-1.644-2.468-.421-.246-.912-.361-1.324-.619-.411-.258-.756-.745-.612-1.213.095-.319.392-.539.593-.81a1.61 1.61 0 0 0-.405-2.231c-.236-.15-.526-.282-.574-.556a1.01 1.01 0 0 1-.741-.783 3.05 3.05 0 0 1 0-1.135l.246-1.772a1.164 1.164 0 0 0 .887 0c.276.447.597.865.957 1.248A12.508 12.508 0 0 1 82.374.719c.182.51.367 1.082.839 1.353.163.092.348.14.507.239.197.137.366.309.498.509.383.507.766 1.011 1.145 1.518l.019.077a.47.47 0 0 0 .051.127c.071.08.169.129.275.14 1.174.27 2.492.52 3.509-.121.919-.573 1.321-1.708 2.1-2.467.552-.539 1.333-.956 1.49-1.715a5.381 5.381 0 0 1-.549-.201c.16-.159.319-.344.536-.554.315-.309.6-.647.849-1.011.269-.448.483-.928.638-1.428.615-1.751 1.231-3.504 1.85-5.257.294-.829.587-1.663.958-2.47.382-.873.835-1.711 1.253-2.569a34.115 34.115 0 0 0 2.483-6.981c.101-.329.135-.675.099-1.017-.09-.551-.508-.985-.907-1.377a6.612 6.612 0 0 0-1.359-1.125 2.232 2.232 0 0 0-1.703-.275c-.817.239-1.331 1.075-1.519 1.913-.188.838-.118 1.702-.198 2.55-.115 1.227-.536 2.414-.638 3.644-.054.711 0 1.431-.086 2.142a7.836 7.836 0 0 1-.957 2.64 17.102 17.102 0 0 1-4.126 5.08c-.194.162-.395.318-.587.494 0-.137.022-.277.042-.414a2.45 2.45 0 0 0-.406.144c.017-.161 0-.324-.047-.478-.256-.762-1.392-.957-1.596-1.731a3.535 3.535 0 0 1-.054-.58c-.067-.679-.53-1.253-.689-1.913-.147-.609-.035-1.275-.319-1.839a5.152 5.152 0 0 0-.849-.957 3.75 3.75 0 0 1-.807-1.521c-.042-.156-.08-.318-.124-.474a2.182 2.182 0 0 0-.115-1.05c-.291-.72-1.04-1.181-1.312-1.911-.21-.568-.118-1.276-.517-1.716a1.859 1.859 0 0 0-.756-.456 16.855 16.855 0 0 0-4.553-1.074c-.874-.08-1.837-.124-2.463-.739-.73-.714-.765-1.999-1.621-2.55-.753-.488-1.818-.128-2.402.557a3.014 3.014 0 0 0-.243.319 3.425 3.425 0 0 1-.067-1.307c0-.108.023-.22.032-.319a6.377 6.377 0 0 0 3.459-2.728v.019l.038.099c.093.233.24.456.456.481a.64.64 0 0 0 .396-.143c.193-.134.37-.288.53-.459a3.583 3.583 0 0 0 .606-.915c.158-.338.266-.698.319-1.068.057-.37.064-.749.128-1.119a6.69 6.69 0 0 1 .233-.845c.031-.092.063-.185.092-.277l.102-.319c.2-.656.307-1.336.319-2.021v-.344a3.35 3.35 0 0 0-1.072-2.375c-.549-.449-1.276-.637-1.678-1.246-.262-.408-.319-.934-.472-1.412a3.186 3.186 0 0 0-2.508-2.254 2.795 2.795 0 0 0-1.985.545l-.044.035c-.317.241-.585.54-.791.88a2.641 2.641 0 0 1-1.124-.638c-.319-.296-.564-.669-.887-.956a2.281 2.281 0 0 0-2.271-.478 2.705 2.705 0 0 0-1.624 1.858c-.176.657-.144 1.413-.511 1.961-.284.427-.75.637-1.075 1.026-.202.246-.34.538-.402.851a2.276 2.276 0 0 0-.054.533c0 .08 0 .16.019.236v.038a2.227 2.227 0 0 0 .53 1.131 2.092 2.092 0 0 0 1.139.673l.379.086.134.032a6.353 6.353 0 0 0-.178 5.613c0 .089-.023.179-.032.268a21.96 21.96 0 0 0 .166 3.758c.044.494.07 1.04-.233 1.432a2.741 2.741 0 0 1-.463.411c.172-.223.348-.443.527-.663-.45-.453-1.162-.511-1.8-.466a8.343 8.343 0 0 0-3.51 1.071c-.714.411-1.448.957-2.265.861-.482-.054-.957-.319-1.426-.191-.264.108-.51.253-.731.433a.989.989 0 0 1-.599.185c-.501-.615-1.277-1.033-1.877-1.533a14.835 14.835 0 0 1-1.866-1.999 342.713 342.713 0 0 1-3.079-3.755c-.855-1.058-1.732-2.202-1.882-3.557a3.425 3.425 0 0 1-.023-.405c.021-.644.102-1.284.243-1.913a.95.95 0 0 0 0-.462c-.096-.319-.463-.437-.779-.507.042-.245.07-.497.086-.736.179-2.741-.015-5.527.565-8.211.22-1.033.581-2.079 1.324-2.828 1.165-1.176 3.114-1.46 4.008-2.853.746-1.16.449-2.802-.489-3.825-.938-1.023-2.383-1.441-3.758-1.39a1.944 1.944 0 0 0-1.094.294 2.331 2.331 0 0 0-.664 1.007l-1.369 3.325a20.197 20.197 0 0 0-1.002 2.671c-.382 1.396-.469 2.869-.772 4.278 0 1.084-.698 2.435-1.081 3.433-.428 1.122-.891 2.232-1.277 3.376-.095.287-.43 1.137-.638 1.912a1.231 1.231 0 0 0-.217.163 5.854 5.854 0 0 0-.453.672c-.29.383-.762.587-1.081.957-.319.37-.386 1.048.057 1.233.09.03.183.051.278.061.058.005.115.014.172.028.479.134.667.737.597 1.234-.071.497-.319.957-.361 1.454-.086.88.431 1.698.929 2.438a20.93 20.93 0 0 0 1.703 2.292c.45.504.957.957 1.411 1.441 1.726 1.772 3.098 3.845 4.648 5.77a12.817 12.817 0 0 0 1.892 1.983c.457.357.936.686 1.433.985l2.667 1.689c.303.222.645.382 1.008.474.119.016.239.016.358 0 .016.08.028.157.047.237.208.835.664 1.594.715 2.445.051.851-.025 1.72.035 2.581.058.794.233 1.594.278 2.375.089 1.504-.281 2.991-.638 4.463-.539 2.155-.865 4.355-1.915 6.309-.293.538-.638 1.087-.638 1.702 0 .073 0 .15.019.223l-.478.271c-.141.08-.281.158-.409.241-.606.395-1.253.833-1.502 1.515-.201.552-.109 1.183-.351 1.718a.806.806 0 0 1-.039.071c-.255.497-.762.867-.877 1.412-.086.417.08.86 0 1.275v.016c-.073.208-.13.421-.172.637a.741.741 0 0 0 .019.21c.061.241.194.459.383.622.115.11.24.21.373.297.136.089.277.171.421.247l.083.046c.121.064.243.124.367.182l.083.035c.144.063.29.121.437.172l.102.032a4.7 4.7 0 0 0 .351.102l.08.025.073.016.319.067.118.022c.141.024.284.043.431.058h.128c.108 0 .214.016.319.019h.584c.15 0 .3-.022.45-.042h.047c.134-.019.268-.041.402-.07l.103-.022c.124-.029.248-.057.373-.096l.067-.019c.15-.044.3-.092.447-.15a11.8 11.8 0 0 0 1.474-.729c.319-.176.638-.354.957-.517.236-.119.479-.225.727-.319a4.107 4.107 0 0 1 1.915-.318c.323.044.642.109.957.194v.105c.259 1.53.516 3.06.769 4.59.417-.3.859-.565 1.321-.793a2.896 2.896 0 0 0-.17.716c-.019.19-.019.382 0 .572.029.302.093.637-.089.876-.112.147-.319.23-.38.395a1.34 1.34 0 0 0-.031.52.833.833 0 0 1-.76.771 1.205 1.205 0 0 1-.482 1.422 1.71 1.71 0 0 0-.37.242 1.099 1.099 0 0 0-.213.482 8.517 8.517 0 0 1-2.499 4.102c-.453.356-.867.76-1.234 1.205a5.473 5.473 0 0 0-.559 1.1 654.308 654.308 0 0 1-2.591 6.238c-.484 1.164-.957 2.346-1.11 3.599-.383 3.436-3.446 6.35-2.871 9.76.116.852.46 1.657.995 2.331.638.768 1.595 1.207 2.553 1.564 2.459.956 5.053 1.48 7.638 2.006l4.058.832a17.67 17.67 0 0 0 2.419.382c.979.067 1.984-.025 2.938.223.59.153 1.155.437 1.764.469.524.029 1.168-.083 1.478.344.309.427.07.992.363 1.371.473.602 1.624 0 2.138.567.14.218.248.456.319.705.078.154.187.291.319.401.031.18.044.363.039.546a9.38 9.38 0 0 1-.46 2.173c-.383 1.295-.765 2.59-1.145 3.886a8.532 8.532 0 0 0-.319 1.403 3.354 3.354 0 0 0 0 .694c.067.704.472 1.432 1.145 1.661a2.1 2.1 0 0 0 1.551-.191 6.912 6.912 0 0 0 1.276-.86 8.727 8.727 0 0 0 1.841-1.894c1.595-2.384 1.078-5.61 2.198-8.246.744-1.76 2.192-3.188 2.674-5.043.112-.353.126-.73.038-1.09-.201-.638-.88-1.001-1.515-1.231h-.029a13.237 13.237 0 0 0-1.595-.456 8.944 8.944 0 0 0-.409-.073 2.51 2.51 0 0 1-.705-.918 2.103 2.103 0 0 0-.15-.551.566.566 0 0 0-.459-.255c-.319-.032-.747.082-1.095.057-.711-.051-1.183-.749-1.821-1.071-.639-.322-1.331-.242-2.011-.195-.243.034-.49.018-.727-.044a2.758 2.758 0 0 1-.766-.526 3.211 3.211 0 0 0-2.811-.564 3.054 3.054 0 0 1-.957.216c-.622-.035-1.062-.589-1.522-1.01-1.257-1.151-3.047-1.454-4.572-2.209a1.046 1.046 0 0 1-.549-.472c-.175-.433.221-.867.578-1.163l2.623-2.178c2.871-2.384 6.46-4.179 7.794-7.675.139-.469.355-.913.638-1.312a1.81 1.81 0 0 1 .354-.317 2.684 2.684 0 0 1 1.963-.383 6.64 6.64 0 0 1 2.31 1.006 44.01 44.01 0 0 1 3.334 2.233 29.52 29.52 0 0 1 3.047 2.499c1.675 1.594 3.069 3.484 4.629 5.202 1.56 1.718 3.344 3.322 5.51 4.144 2.167.823 4.786.787 6.646-.593 2.147-1.594 2.837-4.443 3.379-7.057 1.196-1.154 1.557-2.911 2.141-4.463.367-.985.836-1.913 1.231-2.894.473-1.154.843-2.346 1.213-3.535.419-1.194.704-2.431.849-3.689.153-1.985-.38-4.099.178-5.964.737-.162 1.407-.577 2.132-.819 1.078-.354 2.233-.296 3.375-.29h.074c.393.042.789-.051 1.123-.264.382-.319.443-.864.462-1.358.045-1.221-.032-2.592-.947-3.382" transform="translate(182.5 120)"/>
    <path fill="url(#Gradient-1)" d="M69.363-40.876a2.388 2.388 0 0 1-.808.058l.808-.058" transform="translate(182.5 120)"/>
  </g>
  <path id="Path-1-17" fill="#bf5786" d="M5.708 3.5c-.387.328-.84.568-1.328.704l-2.262.81c-1.228.44-2.511.883-3.806.724-.724-.089-3.829-.546-4.298-1.11-.714-.873 1.79-2.158 2.645-2.894.194-.139.374-.298.536-.472.319-.389.278-.934.233-1.425a21.991 21.991 0 0 1-.166-3.752c.025-.299.068-.595.128-.889.319-1.466 1.684-.931 2.763-.542a21.61 21.61 0 0 1 3.749 1.623c.364.188.68.456.925.784.472.714.284 1.651.207 2.55-.067.698-.063 1.367.374 1.874.22.194.422.408.603.638A1.191 1.191 0 0 1 5.708 3.5" transform="translate(247.412 95.788)"/>
  <g style="transform:translate(-237.503px,-86.566px);animation:4.233s linear both a0_t,4.233s linear both a0_mo;offset-path:path(&quot;M237.503,86.566C237.503,82.566,237.503,62.566,237.503,62.566C237.503,62.566,237.503,82.566,237.503,86.566L237.503,86.566&quot;);offset-rotate:0deg">
    <path id="Path-1-18" fill="#ef426f" d="M19.484-2.47C19.051-15.644 9.896-26.042-.964-25.696c-24.171.706-24.762 44.392-1.425 47.53l-.494 3.871 7.207-.23-.747-3.832C12.965 19.598 19.876 9.474 19.484-2.47" transform="translate(237.503 54.214)"/>
  </g>
  <g style="transform:translate(-237.503px,-86.566px);animation:4.233s linear both a1_t,4.233s linear both a1_mo;offset-path:path(&quot;M237.503,86.566C237.503,82.566,237.503,62.566,237.503,62.566C237.503,62.566,237.503,82.566,237.503,86.566L237.503,86.566&quot;);offset-rotate:0deg">
    <path id="Path-1-19" fill="#fff" d="m1.773 7.887-2.629.09a48.527 48.527 0 0 1-.482-15.864l2.629-.09C.32-2.453.48 2.835 1.773 7.887" transform="translate(223.321 51.555)"/>
  </g>
  <g style="transform:translate(-237.503px,-86.566px);animation:4.233s linear both a2_t,4.233s linear both a2_mo;offset-path:path(&quot;M237.503,86.566C237.503,82.566,237.503,62.566,237.503,62.566C237.503,62.566,237.503,82.566,237.503,86.566L237.503,86.566&quot;);offset-rotate:0deg">
    <path id="Path-1-20" fill="#262c61" d="m4.012-1.026-8.082.261.058 1.791L4.069.765l-.057-1.791" transform="translate(238.278 76.868)"/>
  </g>
  <g style="transform:translate(-237.503px,-86.566px);animation:4.233s linear both a3_t,4.233s linear both a3_mo;offset-path:path(&quot;M237.503,86.566C237.503,82.566,237.503,62.566,237.503,62.566C237.503,62.566,237.503,82.566,237.503,86.566L237.503,86.566&quot;);offset-rotate:0deg">
    <path id="Path-1-21" fill="none" stroke="#a4a4e2" stroke-linecap="round" stroke-linejoin="round" d="M238.375 77.375s-2.125 30.875-4.876 37.907c-3.504 8.958-47.249 49.218-47.249 49.218"/>
  </g>
  <path id="Path-1-22" fill="#bf5786" d="M-3.229.656c.319-1.412.39-2.87.772-4.269.271-.91.605-1.799 1.002-2.661l1.407-3.28c.129-.387.358-.734.664-1.004a1.965 1.965 0 0 1 1.094-.294c1.375-.051 2.821.377 3.759 1.387.938 1.01 1.235 2.646.488 3.803-.893 1.393-2.843 1.673-4.007 2.846C1.206-2.067.846-1.025.626.005.045 2.683.239 5.459.061 8.194c-.058.851-.224 1.824-.957 2.264a2.793 2.793 0 0 1-1.43.277l-2.093.035c-.351 0-1.624.22-1.857-.045-.408-.462.524-2.764.693-3.277.376-1.138.839-2.247 1.276-3.366.38-.998 1.078-2.345 1.078-3.426" transform="translate(225.1 75.659)"/>
  <path id="Path-1-23" fill="#262c61" d="M5.311-6.699c-.481 1.842-1.93 3.277-2.673 5.033C1.518.964 2.022 4.18.439 6.558a8.695 8.695 0 0 1-1.841 1.897c-.391.333-.819.62-1.276.857a2.103 2.103 0 0 1-1.55.192c-.674-.23-1.079-.957-1.146-1.658a3.334 3.334 0 0 1 0-.692c.067-.474.174-.942.319-1.399.383-1.29.765-2.582 1.146-3.876A9.4 9.4 0 0 0-3.45-.289c.042-.803-.469-1.849-.252-2.598.099-.338.469-.637.638-.921.24-.408.425-.847.549-1.304.262-.889.44-1.839.989-2.588A6.108 6.108 0 0 1-.282-8.864c.345-.302.75-.529 1.187-.666a2.91 2.91 0 0 1 1.276.061c.542.115 1.075.266 1.596.452h.028c.639.23 1.315.584 1.516 1.228.098.357.094.734-.01 1.09" transform="translate(259.776 183.157)"/>
  <path id="Path-1-24" fill="#262c61" d="M8.515 1.421c-.019.494-.08 1.045-.463 1.355a1.741 1.741 0 0 1-1.123.264h-.086c-1.139 0-2.297-.064-3.375.29-.82.271-1.573.768-2.428.867-1.178.134-2.285-.51-3.328-1.071A33.246 33.246 0 0 0-5.31 1.692c-.676-.278-2.058-.456-2.383-1.196a10.812 10.812 0 0 1-.281-1.064 3.482 3.482 0 0 0-.194-.469 2.694 2.694 0 0 1-.358-1.055c.002-.371.13-.731.364-1.02a3.062 3.062 0 0 1 2.09-1.074 9.231 9.231 0 0 1 2.405.127L4.189-2.93c.606.086 1.215.172 1.812.319a3.554 3.554 0 0 1 1.557.682c.928.777 1.005 2.145.957 3.35" transform="translate(290.52 135.848)"/>
  <g id="Layer-10" opacity="1" transform="translate(-10000 -10000)">
    <g id="Layer-10-2" opacity="1">
      <path id="Path-1-25" fill="#5bb2ff" d="M-62.812-14.57a2.686 2.686 0 1 0 0-5.372 2.686 2.686 0 0 0 0 5.372" transform="translate(10182.5 10120)"/>
      <path id="Path-1-26" fill="#ff3eb9" d="M-97.342-83.652a1.919 1.919 0 1 0-.002-3.838 1.919 1.919 0 0 0 .002 3.838" transform="translate(10182.5 10120)"/>
      <path id="Path-1-27" fill="#ff3eb9" d="M-139.162-24.164c1.06 0 1.918-.859 1.918-1.919a1.918 1.918 0 1 0-1.918 1.919" transform="translate(10182.5 10120)"/>
      <path id="Path-1-28" fill="#5bb2ff" d="M-72.02-30.689a1.919 1.919 0 1 0 0-3.838 1.919 1.919 0 0 0 0 3.838" transform="translate(10182.5 10120)"/>
      <path id="Path-1-29" fill="#5bb2ff" d="M-130.338-4.591a1.919 1.919 0 1 0 0-3.837 1.919 1.919 0 0 0 0 3.837" transform="translate(10182.5 10120)"/>
      <path id="Path-1-30" fill="#e9efee" d="M-69.718.784a1.92 1.92 0 1 0 0-3.839 1.92 1.92 0 0 0 0 3.839" transform="translate(10182.5 10120)"/>
      <path id="Path-1-31" fill="#cdd9d7" d="M-86.599-67.533a1.919 1.919 0 1 0-.001-3.837 1.919 1.919 0 0 0 .001 3.837" transform="translate(10182.5 10120)"/>
      <path id="Path-1-32" fill="#cdd9d7" d="M-159.107-46.433a12.743 12.743 0 0 1 9.963 5.903c.302.482.695 1.012.486 1.606a1.056 1.056 0 0 1-1.094.731 1.383 1.383 0 0 1-.142-2.667c1.393-.594 2.798.325 3.933 1.058 2.586 1.671 5.43 3.182 8.563 3.372 2.899.176 6.008-.961 7.621-3.476.282-.44-.418-.847-.699-.409-1.599 2.494-4.832 3.389-7.643 3.004a14.885 14.885 0 0 1-4.783-1.624 29.64 29.64 0 0 1-2.256-1.313 14.399 14.399 0 0 0-2.213-1.269c-1.29-.53-2.998-.489-3.899.732-.841 1.139-.191 3.035 1.215 3.355a1.895 1.895 0 0 0 2.192-1.333c.088-.302.1-.62.034-.928-.14-.671-.645-1.327-1.036-1.875a13.543 13.543 0 0 0-10.242-5.677c-.521-.026-.519.784 0 .81" transform="translate(10182.5 10120)"/>
      <path id="Path-1-33" fill="#cdd9d7" d="M-45.65-21.919a10.138 10.138 0 0 1-4.632-7.963c-.022-.452-.091-.973.285-1.304a.835.835 0 0 1 1.042-.083 1.103 1.103 0 0 1 .262 1.31 1.101 1.101 0 0 1-1.196.597c-1.198-.127-1.818-1.311-2.322-2.26-1.148-2.163-2.538-4.315-4.64-5.662-1.946-1.247-4.545-1.662-6.639-.541-.367.196-.038.75.327.555 2.077-1.112 4.669-.481 6.472.877a11.817 11.817 0 0 1 2.692 2.983c.381.578.729 1.177 1.058 1.786.296.61.646 1.192 1.045 1.74.69.869 1.893 1.501 2.992 1.003a1.77 1.77 0 0 0 .456-2.801 1.513 1.513 0 0 0-2.423.707 4.421 4.421 0 0 0-.007 1.704 10.77 10.77 0 0 0 4.914 7.914c.351.22.664-.343.314-.562" transform="translate(10182.5 10120)"/>
      <path id="Path-1-34" fill="#cdd9d7" d="M-111.848-75.053a10.131 10.131 0 0 1-7.924-4.695c-.24-.384-.553-.805-.387-1.277a.84.84 0 0 1 .87-.582 1.103 1.103 0 0 1 .677 1.697c-.136.2-.334.348-.563.424-1.108.473-2.226-.258-3.129-.841-2.057-1.329-4.318-2.53-6.81-2.682-2.306-.14-4.778.765-6.061 2.765-.224.35.333.673.556.325 1.272-1.984 3.843-2.697 6.079-2.39 1.332.21 2.618.647 3.803 1.292a23.42 23.42 0 0 1 1.795 1.044c.556.388 1.145.726 1.76 1.01 1.026.422 2.384.389 3.101-.582a1.777 1.777 0 0 0 .188-1.578 1.771 1.771 0 0 0-1.154-1.091 1.513 1.513 0 0 0-1.771 1.799c.175.546.455 1.052.824 1.491a10.772 10.772 0 0 0 8.146 4.515c.414.021.413-.624 0-.644" transform="translate(10182.5 10120)"/>
      <path id="Path-1-35" fill="#cdd9d7" d="M-110.387-54.649h-1.918v6.306h1.918v-6.306" transform="translate(10182.5 10120)"/>
      <path id="Path-1-36" fill="#b1c1c0" d="m-141.404-59.048 1.333-1.334-4.38-4.382-1.334 1.334 4.381 4.382" transform="translate(10182.5 10120)"/>
      <path id="Path-1-37" fill="#b1c1c0" d="m-87.466-45.798 1.333 1.334 4.38-4.382-1.333-1.334-4.38 4.382" transform="translate(10182.5 10120)"/>
      <path id="Path-1-38" fill="#ff3eb9" d="m-141.948 8.702 1.333 1.333 4.381-4.383-1.333-1.332-4.381 4.382" transform="translate(10182.5 10120)"/>
    </g>
  </g>
  <g id="Layer-11" opacity="1" transform="translate(-10000 -10000)">
    <g id="Layer-11-2" opacity="1">
      <path id="Path-1-39" fill="#5bb2ff" d="M32.188-26.57a2.686 2.686 0 1 0 0-5.374 2.686 2.686 0 0 0 0 5.374" transform="translate(10182.5 10120)"/>
      <path id="Path-1-40" fill="#ff3eb9" d="M-2.342-95.652a1.92 1.92 0 0 0 0-3.838 1.919 1.919 0 0 0 0 3.838" transform="translate(10182.5 10120)"/>
      <path id="Path-1-41" fill="#ff3eb9" d="M-44.162-36.164a1.919 1.919 0 1 0-.001-3.837 1.919 1.919 0 0 0 .001 3.837" transform="translate(10182.5 10120)"/>
      <path id="Path-1-42" fill="#5bb2ff" d="M22.98-42.689a1.919 1.919 0 1 0 0-3.838 1.919 1.919 0 0 0 0 3.838" transform="translate(10182.5 10120)"/>
      <path id="Path-1-43" fill="#5bb2ff" d="M-35.338-16.591a1.919 1.919 0 1 0-.002-3.838 1.919 1.919 0 0 0 .002 3.838" transform="translate(10182.5 10120)"/>
      <path id="Path-1-44" fill="#e9efee" d="M25.282-11.216a1.92 1.92 0 1 0 0-3.839 1.92 1.92 0 0 0 0 3.839" transform="translate(10182.5 10120)"/>
      <path id="Path-1-45" fill="#cdd9d7" d="M8.401-79.533A1.919 1.919 0 1 0 8.4-83.37a1.919 1.919 0 0 0 .001 3.837" transform="translate(10182.5 10120)"/>
      <path id="Path-1-46" fill="#cdd9d7" d="M-64.107-58.433a12.743 12.743 0 0 1 9.963 5.903c.301.482.695 1.012.486 1.606a1.056 1.056 0 0 1-1.094.731 1.386 1.386 0 0 1-.851-2.133 1.38 1.38 0 0 1 .709-.534c1.393-.594 2.798.325 3.933 1.058 2.586 1.671 5.43 3.182 8.563 3.372 2.899.176 6.008-.961 7.62-3.476.283-.44-.418-.847-.699-.409-1.599 2.494-4.832 3.389-7.642 3.004a14.877 14.877 0 0 1-4.783-1.624 29.837 29.837 0 0 1-2.256-1.313 14.399 14.399 0 0 0-2.213-1.269c-1.29-.53-2.998-.489-3.899.732-.841 1.139-.191 3.035 1.215 3.355a1.896 1.896 0 0 0 2.192-1.333c.088-.302.1-.62.034-.928-.14-.671-.645-1.327-1.036-1.875a13.552 13.552 0 0 0-10.242-5.677c-.521-.026-.519.784 0 .81" transform="translate(10182.5 10120)"/>
      <path id="Path-1-47" fill="#cdd9d7" d="M49.35-33.919a10.138 10.138 0 0 1-4.632-7.963c-.022-.452-.091-.973.285-1.304a.835.835 0 0 1 1.042-.083 1.103 1.103 0 0 1 .262 1.31 1.101 1.101 0 0 1-1.196.597c-1.198-.127-1.818-1.311-2.322-2.26-1.148-2.163-2.538-4.315-4.64-5.662-1.946-1.247-4.545-1.662-6.639-.541-.367.196-.038.75.327.555 2.077-1.112 4.669-.481 6.472.877a11.817 11.817 0 0 1 2.692 2.983c.381.578.729 1.177 1.058 1.786.296.61.646 1.192 1.045 1.74.69.869 1.893 1.501 2.992 1.003a1.77 1.77 0 0 0 .456-2.801 1.513 1.513 0 0 0-2.423.707 4.421 4.421 0 0 0-.007 1.704 10.77 10.77 0 0 0 4.914 7.914c.351.22.664-.343.314-.562" transform="translate(10182.5 10120)"/>
      <path id="Path-1-48" fill="#cdd9d7" d="M-16.848-87.053a10.131 10.131 0 0 1-7.924-4.695c-.24-.384-.553-.805-.387-1.277a.84.84 0 0 1 .87-.582 1.103 1.103 0 0 1 .677 1.697 1.103 1.103 0 0 1-.563.424c-1.108.473-2.226-.258-3.129-.841-2.056-1.329-4.319-2.53-6.811-2.682-2.305-.14-4.778.765-6.06 2.765-.225.35.332.673.556.325 1.272-1.984 3.843-2.697 6.078-2.39 1.333.21 2.619.647 3.804 1.292.615.319 1.211.672 1.794 1.044.556.388 1.145.726 1.76 1.01 1.027.422 2.385.389 3.102-.582a1.777 1.777 0 0 0 .187-1.578 1.769 1.769 0 0 0-1.154-1.091 1.51 1.51 0 0 0-1.743 1.06c-.07.24-.079.494-.027.739.175.546.455 1.052.824 1.491a10.772 10.772 0 0 0 8.146 4.515c.414.021.413-.624 0-.644" transform="translate(10182.5 10120)"/>
      <path id="Path-1-49" fill="#cdd9d7" d="M-15.387-66.649h-1.918v6.305h1.918v-6.305" transform="translate(10182.5 10120)"/>
      <path id="Path-1-50" fill="#b1c1c0" d="m-46.404-71.048 1.333-1.334-4.381-4.382-1.333 1.334 4.381 4.382" transform="translate(10182.5 10120)"/>
      <path id="Path-1-51" fill="#b1c1c0" d="m7.533-57.798 1.334 1.334 4.38-4.382-1.333-1.334-4.381 4.382" transform="translate(10182.5 10120)"/>
      <path id="Path-1-52" fill="#ff3eb9" d="m-46.948-3.298 1.333 1.333 4.381-4.383-1.334-1.332-4.38 4.382" transform="translate(10182.5 10120)"/>
    </g>
  </g>
  <path id="Path-1-53" fill="#505799" d="M31.351-19.232c-.957 2.018-.268 4.405-.441 6.637a16.886 16.886 0 0 1-.848 3.678c-.37 1.186-.74 2.375-1.213 3.526-.395.956-.864 1.912-1.231 2.888-.584 1.555-.957 3.305-2.141 4.462-.543 2.608-1.232 5.458-3.379 7.039-1.866 1.377-4.467 1.425-6.646.593-2.179-.832-3.95-2.426-5.51-4.144-1.56-1.719-2.954-3.59-4.629-5.19-.96-.9-1.981-1.734-3.054-2.496a47.763 47.763 0 0 0-3.334-2.212 6.674 6.674 0 0 0-2.31-1.004 2.684 2.684 0 0 0-1.962.382c-.132.09-.251.198-.354.319-.284.397-.5.839-.638 1.307-1.34 3.487-4.936 5.279-7.808 7.657l-2.622 2.171c-.358.296-.753.73-.578 1.16.121.218.316.385.549.472 1.525.752 3.315 1.055 4.572 2.202.459.421.9.976 1.522 1.008.328-.02.652-.092.957-.214a3.215 3.215 0 0 1 2.811.561c.223.218.482.396.766.526.237.063.484.078.727.045.68-.048 1.401-.109 2.01.194.61.303 1.111 1.017 1.822 1.068.348.025.763-.089 1.094-.057a.567.567 0 0 1 .46.255c.074.175.125.359.15.548.131.449.571.723.858 1.093.44.568.504 1.339.459 2.056a8.766 8.766 0 0 1-2.794 5.872 3.46 3.46 0 0 1-1.72.956 1.59 1.59 0 0 1-1.704-.755 2.634 2.634 0 0 0-.319-.702c-.514-.564-1.665.036-2.138-.567-.293-.376-.083-.979-.363-1.367-.281-.389-.958-.319-1.478-.342-.609-.031-1.174-.318-1.764-.468-.957-.249-1.959-.156-2.939-.223-.814-.072-1.622-.2-2.418-.383l-4.058-.829c-2.585-.526-5.179-1.058-7.639-1.998-.941-.357-1.888-.797-2.552-1.562a4.771 4.771 0 0 1-.995-2.327c-.578-3.401 2.485-6.308 2.871-9.735.137-1.25.638-2.429 1.11-3.589.866-2.075 1.73-4.15 2.591-6.226.139-.387.321-.756.542-1.103a8.068 8.068 0 0 1 1.235-1.202 8.48 8.48 0 0 0 2.498-4.093c.032-.175.105-.34.214-.481.113-.094.238-.175.37-.239a1.21 1.21 0 0 0 .482-1.418.827.827 0 0 0 .759-.772 1.34 1.34 0 0 1 .032-.516c.077-.166.268-.249.38-.396.182-.239.118-.573.089-.873a2.867 2.867 0 0 1 0-.571c.07-.675.372-1.304.855-1.781.763-.75 1.848-.555 2.901-.734a16.624 16.624 0 0 0 3.063-.978 30.094 30.094 0 0 1 8.649-1.999 18.901 18.901 0 0 1 8.736 1.39c.402.163.78.377 1.126.638.246.189.447.429.59.704.118.337.263.665.434.979.342.465.986.615 1.36 1.055.373.44.405 1.182.714 1.727.444.778 1.471 1.138 1.777 1.983.096.268.109.561.179.838.172.695.689 1.244 1.146 1.792a13.772 13.772 0 0 1 3.088 7.013c.102-1.616 1.19-3.048 2.552-3.94.367-.239.792-.504.865-.937.093-.549-.44-1.036-.405-1.594.039-.273.149-.53.319-.746a23.526 23.526 0 0 1 1.997-2.509c.393-.43.833-.956.67-1.523-.124-.424-.558-.673-.797-1.043a1.327 1.327 0 0 1 .032-1.466c.223-.303.577-.523.685-.883.125-.424-.153-.883-.067-1.32.117-.35.349-.649.658-.851a5.459 5.459 0 0 1 1.426-.937c.842-.319 1.78-.201 2.674-.077 1.493.208 3.168.526 4.01 1.776.539.781.814 1.967.412 2.802" transform="translate(260.78 158.54)"/>
  <path id="Path-1-54" fill="#070809" d="M8.52 2.003c-.019.494-.08 1.045-.463 1.355a1.741 1.741 0 0 1-1.123.264h-.086c.131-.663.938-1.042 1.079-1.715A1.525 1.525 0 0 0 7.576.75C6.893-.171 5.795-.681 4.704-1.054a19.034 19.034 0 0 0-9.591-.717 9.68 9.68 0 0 0-2.52.774 8.205 8.205 0 0 0-.766.542A2.692 2.692 0 0 1-8.53-1.51c.001-.371.129-.731.363-1.02a3.057 3.057 0 0 1 2.09-1.074 9.241 9.241 0 0 1 2.406.127l7.855 1.129c.606.086 1.216.172 1.812.319a3.55 3.55 0 0 1 1.557.682c.938.777 1.015 2.145.967 3.35" transform="translate(290.516 135.264)"/>
  <path id="Path-1-55" fill="#070809" d="M5.3-6.983C4.819-5.14 3.37-3.706 2.627-1.949 1.507.681 2.011 3.897.428 6.275a8.695 8.695 0 0 1-1.841 1.897 6.83 6.83 0 0 1-1.276.857 2.098 2.098 0 0 1-1.55.191c-.674-.229-1.079-.956-1.146-1.657a3.334 3.334 0 0 1 0-.692l.019.051c.278.669.731 1.371 1.446 1.489a1.953 1.953 0 0 0 1.474-.52c1.053-.845 1.665-2.104 2.249-3.318C.26 3.697.622 2.775.881 1.822c.128-.542.189-1.097.32-1.639.606-2.633 2.67-4.781 3.126-7.449.037-.184.046-.372.026-.558a2.798 2.798 0 0 0-.275-.695 3.487 3.487 0 0 1-.242-.771c.638.229 1.314.583 1.515 1.227.083.358.065.732-.051 1.08" transform="translate(259.787 183.439)"/>
  <path id="Path-1-56" fill="#070809" d="M10.054 7.617A4.63 4.63 0 0 1 8.615 9.58a7.022 7.022 0 0 1-3.098 1.339 3.085 3.085 0 0 1-1.596-.019c-.708-.245-1.218-.909-1.943-1.1-.516-.14-1.072-.016-1.595-.092-.941-.131-1.672-.848-2.431-1.422-2.326-1.747-5.379-2.311-7.705-4.058a.7.7 0 0 1-.249-.258.762.762 0 0 1-.048-.36A7.323 7.323 0 0 1-9.351.547c.37-.669.81-1.297 1.314-1.872 2.084-2.55 4.177-5.119 6.672-7.271 1.046-.902 2.188-1.743 3.509-2.151.734-.227 2.183-.44 3.076-.058a1.76 1.76 0 0 0-.354.319c-.284.397-.5.839-.638 1.307-1.343 3.49-4.939 5.282-7.811 7.66L-6.205.652c-.358.296-.753.73-.578 1.16.121.218.315.385.549.472 1.525.752 3.315 1.055 4.572 2.202.459.421.9.976 1.522 1.008.328-.02.652-.092.957-.214a3.222 3.222 0 0 1 2.811.561c.223.218.482.396.766.526.237.063.484.078.727.045.68-.048 1.401-.109 2.01.194.61.303 1.11 1.017 1.822 1.068.354.026.769-.096 1.101-.057" transform="translate(250.216 164.269)"/>
  <path id="Path-1-57" fill="#262c61" d="M-4.661 1.421c-.606.389-1.251.829-1.499 1.505-.205.551-.109 1.183-.355 1.718-.245.536-.797.909-.919 1.482-.086.418.083.858 0 1.275-.072.218-.13.439-.175.663-.032.475.377.861.775 1.126a6.48 6.48 0 0 0 5.798.637c.851-.319 1.62-.838 2.437-1.246a4.828 4.828 0 0 1 2.626-.638c.526.058 1.031.249 1.557.319a1.635 1.635 0 0 0 1.458-.433c.163-.225.272-.483.319-.756.444-1.75.243-3.605-.179-5.365-.421-1.759-1.059-3.452-1.509-5.202-.319-1.297-.564-2.627-1.097-3.854-.533-1.227-1.43-2.368-2.684-2.837a.5.5 0 0 0-.319-.041.539.539 0 0 0-.207.153A9.804 9.804 0 0 0-.823-6.395c-.501 1.527-.638 3.147-1.097 4.68-.198.637-.453 1.492-.957 1.979-.505.488-1.213.791-1.784 1.157" transform="translate(235.587 127.202)"/>
  <path id="Path-1-58" fill="#070809" d="M7.364 7.078a1.858 1.858 0 0 1-.335.755 1.618 1.618 0 0 1-1.458.431c-.524-.064-1.028-.259-1.554-.319a4.817 4.817 0 0 0-2.626.637c-.817.408-1.595.915-2.441 1.244a6.455 6.455 0 0 1-3.87.22 6.245 6.245 0 0 1-1.914-.842c-.402-.261-.807-.637-.776-1.125a5.53 5.53 0 0 1 .176-.66c.083-.418-.083-.858 0-1.275.121-.574.676-.956.919-1.486.242-.529.15-1.163.351-1.714.249-.679.896-1.116 1.503-1.508.606-.392 1.327-.692 1.812-1.167.062-.074.119-.153.169-.236.35-.539.606-1.132.759-1.756.469-1.537.597-3.153 1.095-4.683a9.81 9.81 0 0 1 2.191-3.675.485.485 0 0 1 .205-.153.51.51 0 0 1 .319.038c1.25.472 2.147 1.613 2.683 2.84.536 1.227.762 2.55 1.097 3.851.447 1.75 1.088 3.449 1.51 5.205.421 1.757.628 3.625.185 5.378" transform="translate(235.594 127.187)"/>
  <path id="Path-1-59" fill="#070809" d="M3.835 2.532A6.388 6.388 0 0 1-3.937-.975c.025-.299.068-.595.128-.889.319-1.466 1.684-.931 2.763-.542 1.298.421 2.553.964 3.749 1.622.364.188.68.457.925.785.472.704.284 1.642.207 2.531" transform="translate(248.611 92.858)"/>
  <path id="Path-1-60" fill="#bf5786" d="M0 6.375A6.377 6.377 0 0 0 6.381 0 6.377 6.377 0 0 0 0-6.375 6.378 6.378 0 0 0-6.381 0 6.378 6.378 0 0 0 0 6.375" transform="translate(250.519 88.994)"/>
  <path id="Path-1-61" fill="#070809" d="M12.674-.527c0 .529-.717.698-1.25.67C9.509.031 7.637-.495 5.741-.336c-2.396.217-4.597 1.54-7 1.661-.925.048-1.866-.089-2.779.08-1.18.22-2.233.937-3.436 1.039-1.043.089-2.074-.303-3.117-.261a5.004 5.004 0 0 0-2.083.593 2.924 2.924 0 0 1 .855-1.782c.762-.749 1.847-.555 2.9-.733a16.704 16.704 0 0 0 3.063-.979 30.127 30.127 0 0 1 8.649-1.999 18.913 18.913 0 0 1 8.733 1.381c.402.162.78.376 1.126.637a.48.48 0 0 1 .022.172" transform="translate(255.16 137.163)"/>
  <path id="Path-1-62" fill="#e7f1fe" d="m-4.945-18.162-2.584-.957-1.091-.401a5.295 5.295 0 0 0-1.392-.37c-1.251-.096-2.427.737-3.094 1.798-.667 1.062-.92 2.327-1.134 3.561a98.842 98.842 0 0 0-.746 5.081 33.43 33.43 0 0 0-.336 4.635c.074 3.946.911 7.838 1.83 11.679.45 1.703.79 3.433 1.017 5.18.077.72.112 1.444.189 2.168.083.812.216 1.616.35 2.422l.769 4.581c.957-.679 2.045-1.275 3.222-1.31 1.043-.039 2.078.35 3.118.261 1.197-.099 2.256-.816 3.436-1.036.913-.169 1.853-.035 2.782-.08 2.399-.121 4.605-1.447 6.997-1.66 1.899-.172 3.784.363 5.686.475.53.032 1.248-.137 1.248-.67 0-.37-.371-.615-.693-.8a34.184 34.184 0 0 1-4.323-3.082c-1.257-.995-2.533-2.015-3.398-3.36C4.825 6.717 5.539 2.341 3.762-1.073c-1.445-2.773 0-6.407 0-9.534 0-1.559 0-3.137-.367-4.651a19.608 19.608 0 0 0-.856-2.486l-1.24-3.14a.521.521 0 0 0-.147-.24.492.492 0 0 0-.284-.086 2.995 2.995 0 0 0-2.061.66c-.584.475-.958 1.157-1.532 1.651-.629.545-1.438 1.024-2.22.737" transform="translate(252.514 118.799)"/>
  <path id="Path-1-63" fill="#262c61" d="M-6.26-18.683c.204-.873.424-1.782 1.008-2.464.584-.682 1.65-1.043 2.403-.555.855.555.89 1.836 1.621 2.55.638.612 1.596.66 2.464.74 1.56.142 3.092.502 4.552 1.071.284.088.544.243.756.453.399.452.319 1.147.517 1.711.271.727 1.021 1.189 1.311 1.913.319.803 0 1.702-.268 2.528-.482 1.482-.785 3.022-1.254 4.51-.469 1.489-1.136 2.955-2.233 4.077-.485.497-1.206.956-1.844.66L2.527.28a2.993 2.993 0 0 0 0 1.132 1.007 1.007 0 0 0 .74.784c.048.274.338.405.574.555a1.598 1.598 0 0 1 .671 1.031 1.609 1.609 0 0 1-.265 1.2c-.201.271-.497.484-.593.806-.143.466.197.957.612 1.212s.903.373 1.324.618c.874.504 1.343 1.495 1.643 2.458.223.727.408 1.514.957 2.043.211.201.463.354.664.564.348.411.55.926.572 1.463a2.902 2.902 0 0 1-.416 1.913c-.638.912-1.828 1.183-2.871 1.594-1.695.695-3.089 1.938-4.582 2.996a4.885 4.885 0 0 1-2.09.982c-1.034.137-2.051-.319-3.092-.36a7.704 7.704 0 0 0-1.844.242l-1.914.414c.102-1.482-.715-2.967-1.171-4.379-.861-2.659-1.021-5.502-.817-8.288.204-2.786.772-5.534 1.334-8.269.392-1.913.354-3.911.957-5.77.565-1.788 1.372-3.506 1.669-5.368.485-3.012-1.532-5.565-.849-8.536" transform="translate(257.998 117.509)"/>
  <path id="Path-1-64" fill="#262c61" d="M.059-9.847c.176.324.3.674.367 1.036a3.74 3.74 0 0 0 .807 1.518c.321.283.606.604.849.956.293.555.182 1.23.319 1.836.159.66.622 1.234.689 1.913.002.194.02.388.054.58.208.771 1.344.956 1.596 1.728.169.5-.122 1.045-.067 1.571.039.163.049.331.028.497-.072.188-.199.35-.363.466a7.334 7.334 0 0 0-2.1 3.732 21.284 21.284 0 0 0-.482 4.313L.509 8.651a1.888 1.888 0 0 0-.498-.51c-.159-.095-.344-.143-.507-.239-.472-.268-.657-.835-.839-1.345a12.406 12.406 0 0 0-2.234-3.863c-.507-.597-1.097-1.196-1.209-1.97A3.625 3.625 0 0 1-4.72-.341c.319-2.088.66-4.227 1.678-6.079.475-.867 1.091-1.651 1.547-2.531.307-.583.737-2.101 1.554-.896" transform="translate(266.193 114.566)"/>
  <path id="Path-1-65" fill="#262c61" d="M8.905 10.644a1.45 1.45 0 0 1-.198.766 1.005 1.005 0 0 1-1.008.318 2.911 2.911 0 0 1-1.008-.472L4.024 9.57a14.578 14.578 0 0 1-1.433-.982c-.7-.59-1.334-1.253-1.892-1.979C-.852 4.696-2.224 2.621-3.95.871c-.469-.478-.957-.938-1.41-1.438a21.022 21.022 0 0 1-1.704-2.288c-.497-.736-1.014-1.552-.928-2.432.051-.497.29-.957.36-1.451.071-.494-.118-1.096-.596-1.23a1.116 1.116 0 0 0-.173-.029 1.317 1.317 0 0 1-.277-.06c-.444-.185-.377-.871-.058-1.231.32-.36.792-.561 1.082-.956a5.78 5.78 0 0 1 .453-.673 1.73 1.73 0 0 1 .744-.373 11.509 11.509 0 0 1 5.663-.213c.319.07.683.198.778.507a.915.915 0 0 1 0 .459 10.25 10.25 0 0 0-.242 1.912c-.001.134.007.269.022.402.15 1.352 1.028 2.496 1.883 3.551A341.568 341.568 0 0 0 4.725-.927c.56.72 1.184 1.388 1.867 1.993.638.529 1.464.956 1.962 1.635.405.548.275 1.297.319 1.957.149 1.992.159 3.993.032 5.986" transform="translate(225.872 96.08)"/>
  <path id="Path-1-66" fill="#bf5786" d="M-1.414 11.154c.315-.306.6-.642.849-1.004.268-.448.482-.926.638-1.425l1.851-5.243c.293-.829.587-1.661.957-2.468.383-.87.836-1.708 1.254-2.55a33.985 33.985 0 0 0 2.479-6.933c.1-.329.134-.675.099-1.017-.09-.551-.508-.982-.907-1.374a6.624 6.624 0 0 0-1.359-1.122 2.23 2.23 0 0 0-1.703-.274c-.817.239-1.331 1.075-1.519 1.913-.188.838-.118 1.696-.198 2.55C.912-6.569.491-5.386.389-4.159c-.054.711 0 1.428-.086 2.136A7.816 7.816 0 0 1-.654.613 17.129 17.129 0 0 1-4.78 5.681 6.671 6.671 0 0 0-6.018 6.87c-.3.449-.503.954-.596 1.486a3.42 3.42 0 0 0 .258 2.413c.52.886 1.519 1.275 2.473 1.472 1.289.268 1.586-.172 2.469-1.087" transform="translate(276.711 108.87)"/>
  <path id="Path-1-67" fill="#262c61" d="M-.372-5.446a2.968 2.968 0 0 1 2.89-1.565 3.19 3.19 0 0 1 2.508 2.25c.15.475.211 1.001.472 1.409.396.615 1.13.794 1.679 1.24A3.367 3.367 0 0 1 8.249.26a7.179 7.179 0 0 1-.425 2.681 8.542 8.542 0 0 0-.319 1.122c-.064.37-.07.745-.127 1.115a3.633 3.633 0 0 1-1.465 2.413.641.641 0 0 1-.396.144c-.248-.029-.402-.319-.494-.58-.507-1.463-.386-3.251-1.321-4.418A4.823 4.823 0 0 0 2.19 1.611a1.938 1.938 0 0 0-.772-.29 2.036 2.036 0 0 0-1.117.408 6.972 6.972 0 0 1-2.208.976 2.712 2.712 0 0 1-2.281-.491c-.441-.363-.763-.908-1.251-1.192-.488-.284-.999-.268-1.48-.463A2.183 2.183 0 0 1-8.18-.894a2.18 2.18 0 0 1 .374-1.887c.319-.383.791-.599 1.075-1.023.367-.548.335-1.301.51-1.958a2.701 2.701 0 0 1 1.624-1.852 2.291 2.291 0 0 1 2.272.475c.319.287.574.657.887.957a2.554 2.554 0 0 0 2.361.637" transform="translate(250.93 85.202)"/>
  <path id="Path-1-68" fill="#070809" d="M-3.068-.114a1.24 1.24 0 0 0-.338 1.351c.07.15 3.363-.484 3.71-.532.868-.124 2.39-.064 2.974-.857C4.318-1.558 1.096-1.246.505-1.195c-1.123.096-2.718.249-3.573 1.081" transform="translate(258.871 126.791)"/>
  <path id="Path-1-69" fill="#262c61" d="M4.451-.647a10.272 10.272 0 0 0-.243 1.913c-.957.195-1.952-.124-2.871-.443l-2.639-.899A.751.751 0 0 0-2.31.112c-.424.44-1.008 1.275-1.595 1.769a1.314 1.314 0 0 1-.278-.061c-.443-.185-.376-.87-.057-1.23s.791-.561 1.081-.956c.136-.235.287-.46.454-.673a1.72 1.72 0 0 1 .743-.373 11.51 11.51 0 0 1 5.663-.214c.319.07.683.198.779.507a.934.934 0 0 1-.029.472" transform="translate(221.399 86.202)"/>
  <path id="Path-1-70" fill="#070809" d="M4.451-.647a10.272 10.272 0 0 0-.243 1.913c-.957.195-1.952-.124-2.871-.443l-2.639-.899A.751.751 0 0 0-2.31.112c-.424.44-1.008 1.275-1.595 1.769a1.314 1.314 0 0 1-.278-.061c-.443-.185-.376-.87-.057-1.23s.791-.561 1.081-.956c.136-.235.287-.46.454-.673a1.72 1.72 0 0 1 .743-.373 11.51 11.51 0 0 1 5.663-.214c.319.07.683.198.779.507a.934.934 0 0 1-.029.472" transform="translate(221.399 86.202)"/>
  <path id="Path-1-71" fill="#070809" d="M2.606.207c.46.153.958.376 1.114.835L.025.105l-1.914-.488c-.338-.086-1.551-.185-1.774-.45-.319-.389.814-.121 1.018-.092.619.092 1.238.188 1.854.3 1.161.207 2.278.548 3.397.832" transform="translate(247.381 145.866)"/>
  <path id="Path-1-72" fill="#070809" d="M3.856 1.286c-.319-.214-1.235-.188-1.627-.281C1.655.868 1.09.686.525.511-.62.138-1.756-.286-2.933-.56c-.217-.048-.958-.061-.922-.335.035-.274.74-.369.915-.382 1.044-.077 2.345.411 3.315.758a14.645 14.645 0 0 1 3.481 1.805" transform="translate(247.563 148.054)"/>
  <path id="Path-1-73" fill="#070809" d="M2.3.984C1.129.665.067-.062-1.139-.202a1.4 1.4 0 0 1-.878-.268A1.038 1.038 0 0 1-2.3-.98c.808-.041 1.745.3 2.478.622.404.173.793.38 1.162.618.268.163.67.631.96.724" transform="translate(246.777 142.176)"/>
  <path id="Path-1-74" fill="#262c61" d="M.021-5.368A5.571 5.571 0 0 0 3.933.794c-.156.756-.938 1.173-1.49 1.712-.778.755-1.18 1.887-2.099 2.461-1.025.637-2.342.389-3.51.121a.425.425 0 0 1-.274-.144.374.374 0 0 1-.051-.124C-3.877 3.408-4.13 1.9-3.734.485c.319-1.205 1.085-2.231 1.698-3.296.612-1.065.67-2.206 2.057-2.557" transform="translate(271.377 119.985)"/>
  <path id="Path-1-75" fill="#262c61" d="M6.548-20.44a8.305 8.305 0 0 0-3.51 1.067c-.715.408-1.449.957-2.265.858-.482-.054-.958-.319-1.427-.191-.264.107-.51.252-.73.433a.822.822 0 0 1-.804.128l-.319 4.412c-.121 1.676-.24 3.388.162 5.023.208.835.664 1.594.715 2.442.051.848-.025 1.718.035 2.576.058.793.233 1.574.278 2.368.089 1.498-.281 2.984-.638 4.44-.539 2.149-.865 4.345-1.915 6.29-.293.538-.638 1.087-.638 1.699 0 .076 0 .15.019.223-.319.175-.615.341-.887.513-.606.392-1.253.829-1.502 1.508-.201.551-.109 1.182-.351 1.715-.243.532-.798.911-.919 1.485-.086.418.08.858 0 1.275a5.581 5.581 0 0 0-.176.66c-.032.478.374.864.776 1.125a6.245 6.245 0 0 0 1.914.842l1.905-7.555A60.988 60.988 0 0 0 .588 2.865 21.525 21.525 0 0 1 1.835-.438c.361-.602.681-1.228.957-1.874.291-.803.319-1.674.46-2.522a17.61 17.61 0 0 1 .749-2.91c.345-1.023.744-2.043.814-3.117.105-1.537-.453-3.159.14-4.581.252-.532.58-1.025.974-1.463.823-1.007 1.573-2.063 2.396-3.07-.428-.456-1.139-.503-1.777-.465" transform="translate(236.324 116.78)"/>
  <path id="Path-1-76" fill="#070809" d="m.222-.03-.399.028-.045.032C-.073.024.076.004.222-.03" transform="translate(251.641 78.738)"/>
  <path id="Path-1-77" fill="#070809" d="M8.227-2.78a8.605 8.605 0 0 1-.409 1.862A8.542 8.542 0 0 0 7.499.204c-.064.37-.07.746-.127 1.116a3.628 3.628 0 0 1-1.465 2.413.64.64 0 0 1-.396.143c-.248-.029-.402-.319-.494-.58C4.51 1.833 4.631.045 3.696-1.122a4.82 4.82 0 0 0-1.512-1.125 1.938 1.938 0 0 0-.772-.29 2.036 2.036 0 0 0-1.117.408 6.97 6.97 0 0 1-2.208.975 2.712 2.712 0 0 1-2.281-.491c-.441-.363-.763-.908-1.251-1.192-.488-.284-.999-.267-1.48-.462A2.182 2.182 0 0 1-8.17-4.721a.999.999 0 0 1-.025-.121 2.193 2.193 0 0 0 .485 1.93c.216.246.484.441.785.569.481.195 1.024.197 1.48.462.456.265.81.829 1.251 1.192a2.713 2.713 0 0 0 2.281.491 6.97 6.97 0 0 0 2.208-.975 2.036 2.036 0 0 1 1.117-.408c.275.04.538.139.772.29a4.838 4.838 0 0 1 1.49 1.135c.934 1.167.813 2.955 1.321 4.418.092.265.245.551.494.58a.64.64 0 0 0 .418-.153 3.63 3.63 0 0 0 1.468-2.423c.057-.37.063-.745.127-1.115.081-.381.187-.756.319-1.122a7.182 7.182 0 0 0 .425-2.681c-.007-.038-.013-.083-.019-.128" transform="translate(250.937 88.104)"/>
  <path id="Path-1-78" fill="#070809" d="M-2.7-2.71h5.399v5.42h-4.92A138.332 138.332 0 0 1-2.7-2.71" transform="translate(142.532 113.614)"/>
  <path id="Path-1-79" fill="#070809" d="M2.698-2.71a138.332 138.332 0 0 1-.479 5.42h-4.916v-5.42h5.395" transform="translate(215.617 113.614)"/>
  <g id="Path-1-80">
    <path fill="url(#Gradient-2)" d="M-63.866 20.726c-.737-.246-5.076-3.676-5.404-5.228-.329-1.552 2.294-16.016 2.294-16.016s-.243.001-.638-.047v-.233l.539-18.998s2.211-12.751-1.966-12.008c-4.176.743-1.557 12.008-1.557 12.008s-.475 5.718-.81 7.433c-.319 1.654-1.78 8.393-.785 10.487.037.075.077.148.121.218 0 0 .166 7.188-1.636 8.17-1.72.934-2.435 5.636-2.495 6.056l-.093-.038a4.999 4.999 0 0 1-1.33-1.214c-.039-.048-.067-.099-.103-.15a7.009 7.009 0 0 0-.188-9.522 7.065 7.065 0 0 0-1.975-1.44 4.532 4.532 0 0 0-.424-1.761c-.83-1.772-5.424-4.09-8.688-4.144-1.506-.045-2.74.384-3.19 1.56-.23.596-.16 1.274-.256 1.892-.191 1.275-1.011 2.273-2.064 3.067a12.92 12.92 0 0 0-1.375-1.323c-1.066-.816-3.191-3.505-3.191-3.505s-6.633-6.864-7.124-8.745c-.491-1.881-7.118-13.174-8.592-11.207-1.474 1.967 5.076 10.538 5.076 10.538s1.244 3.115 2.201 4.167c.957 1.052 8.296 11.698 8.296 11.698l.351.726c-1.551.816-2.967 1.856-3.468 3.476-.734 2.384.871 4.781 1.981 7.012 2.163 4.355 2.473 9.908-.319 13.886-2.501 3.513-6.84 5.183-10.902 6.643a10.73 10.73 0 0 0 6.891 2.285c-.938 2.716-4.262 3.615-7.095 4.119 1.487 1.428 3.614 1.947 5.656 2.263 1 .17 2.014.25 3.028.239h.249l.249-.019c.346-.023.69-.067 1.031-.131 1.474-.299 2.906-1.104 3.659-2.404.638-1.113.862-2.629 2.02-3.187.302-.136.626-.213.957-.226h-.035.657l4.827.048h.616c1.362-.032 2.818-.268 3.51-1.393a3.858 3.858 0 0 0 .437-1.77c.102-1.527-.001-3.099.041-4.638.412 2.801.842 7.17-.182 8.782a14.965 14.965 0 0 1-2.992 3.242 5.72 5.72 0 0 0-.792.81c-.156.112-.248.172-.248.172l-.099.297a5.59 5.59 0 0 0-.779 1.804c-.056.165-.076.34-.06.513.112.226-.798 1.16-.533 1.552-2.272 2.662-2.703 6.694-2.703 6.694l-4.147 6.293c-2.131 5.594-5.322 6.168-5.322 6.168s-7.495-5.024-7.699-5.269c-.204-.246-3.069-1.473-3.069-1.473a3.251 3.251 0 0 0-1.474-1.345c-.983-.408-1.066-1.913-1.066-1.913-.121-3.554-2.211-3.825-2.211-3.825-1.685-.143-2.971.156-3.96.705l-.299.022c-1.449.118-3.191.249-5.105.376-5.325.351-6.592 3.796-6.592 3.796s-.654.737.204 1.534 6.352 0 6.585-.019a3.578 3.578 0 0 1-1.25-.086 89.321 89.321 0 0 1 3.069-.064h.246a13.27 13.27 0 0 0-.093 1.619c0 1.02 2.824 1.674 2.824 1.674l8.598 7.65s5.406 2.413 8.845 5.884c3.439 3.472 6.48.475 6.48.475 3.64-.899 14.114-13.55 14.124-13.563 0 .37.22 12.674.638 15.144.017.126.048.249.093.367.491 1.061-.166 3.962-.45 5.186a14.425 14.425 0 0 0-.207 3.105s-3.928 14.982-3.602 16.298c.325 1.317-2.129 7.434-2.129 7.434v5.099l.428-.021a2.73 2.73 0 0 0-.153.255l-.029.054s2.62.571 4.381.408c1.761-.162 4.785 1.355 4.785 1.355s1.025.484 4.177.688c3.152.204 3.152-1.389 3.152-1.389-.36-2.171-5.341-2.898-5.494-2.92a14.587 14.587 0 0 1-1.088-.762l-.064-.051c.021-.048.039-.097.054-.147.533-2.167-2.415-3.108-2.415-3.108v-.53c1.915-.982 2.294-7.72 2.294-7.72s2.872-8.332 3.274-9.722c.402-1.389 0-3.471 0-3.471l.287-1.798s.616-1.224.616-1.469a3.623 3.623 0 0 1 .695-1.715c.45-.533-.491-1.799-.491-1.799l.82-2.122v-2.33l1.914-8.454s2.007-9.846 1.311-13.069c-.695-3.223.82-4.861.82-4.861a4.202 4.202 0 0 1-.421.191c.192-.443.357-.896.495-1.358l4.307.531v.065h1.554s-.491-6.056-.491-8.498c0-2.442 1.655-11.205 1.655-11.205s.737-8.565 0-8.81" transform="translate(182.5 120)"/>
    <path fill="url(#Gradient-2)" d="M-82.987 13.655c0 .24-.022.488-.038.743l-.086.131-.16-.134-.194.303-.057.029c-.421-.217-.639-1.457-.942-1.189l-.041.035c-.067-.077-.134-.099-.204-.035l-.064.054v-.284a7.18 7.18 0 0 0 1.786.226c.004.042 0 .083 0 .121m14.326 28.205h.093l-.154.401c.02-.134.039-.264.061-.401m-15.726 72.286-.587-.147.319-.054.297.194.035.026-.064-.019m5.998-.858a8.51 8.51 0 0 1-.584-.341c.064.035.316.166.584.341" transform="translate(182.5 120)"/>
  </g>
  <path id="Path-1-81" fill="#ff4889" d="M3.279-6.885-.583 3.174h.937L-3.28 6.07l6.559.815v-13.77" transform="translate(112.678 162.722)"/>
  <path id="Path-1-82" fill="#070809" d="M3.279-6.885-.583 3.174l-.974-.261L-3.28 6.07l6.559.815v-13.77" transform="translate(112.678 162.722)"/>
  <path id="Path-1-83" fill="#ff4889" d="M-4.141 9.141h6.058L4.141-9.141h-8.282V9.141" transform="translate(114.04 153.132)"/>
  <path id="Path-1-84" fill="#070809" d="M-4.141 9.141h6.058L4.141-9.141h-8.282V9.141" transform="translate(114.04 153.132)"/>
  <path id="Path-1-85" fill="#ffb1d9" d="m-9.326 9.994 1.308-.22 3.006-.51S4.014 7.23 5.877 7.065a11.658 11.658 0 0 0 3.267-.931c.488-.211.798-.37.798-.37L6.691-.168 1.646-3.904s-3.19-.679-4.54-2.534a2.988 2.988 0 0 1-.418-2.831c.823-2.55-4.917 2.439-4.917 2.439s.055 1.195 0 2.719c0 .299-.028.612-.051.93 0 .211-.028.421-.051.638-.14 1.514-.427 3.073-.995 4.004-1.388 2.276 0 8.533 0 8.533" transform="translate(107.391 138.326)"/>
  <path id="Path-1-86" fill="#070809" d="M-2.671 2.942h.129c.23 0 .415-.488.638-.51 1.796-.172 3.436-.548 4.575-1.82a2.994 2.994 0 0 1-.418-2.828C3.077-4.766-2.663.22-2.663.22s.059 1.198-.008 2.722" transform="translate(101.833 131.401)"/>
  <path id="Path-1-87" fill="#ffb1d9" d="M-6.994-.001A6.99 6.99 0 0 0 0 6.986c.23 0 .456 0 .683-.032A6.999 6.999 0 0 0 6.64 2.195a6.981 6.981 0 0 0-1.942-7.37 6.992 6.992 0 0 0-7.531-1.213A6.991 6.991 0 0 0-6.994-.001" transform="translate(99.169 127.114)"/>
  <path id="Path-1-88" fill="#262c61" d="M3.639-22.72c-.23.593-.159 1.256-.252 1.884-.341 2.266-2.647 3.624-4.734 4.574-2.087.95-4.441 2.075-5.105 4.265-.727 2.369.861 4.743 1.965 6.965 2.151 4.329 2.457 9.85-.319 13.809-2.466 3.507-6.764 5.17-10.81 6.63a10.655 10.655 0 0 0 6.844 2.276c-.928 2.7-4.231 3.596-7.045 4.093 1.477 1.422 3.593 1.938 5.619 2.251 1.477.229 2.993.379 4.467.083 1.474-.297 2.872-1.097 3.631-2.391.638-1.106.854-2.614 2.006-3.172a3.643 3.643 0 0 1 1.637-.239l4.786.051c1.49 0 3.254-.115 4.023-1.386a3.827 3.827 0 0 0 .434-1.76c.207-3.137-.395-6.452.897-9.314.389-.864-2.11-2.232-1.848-3.147.9-3.146 1.127-5.623 1.117-8.896 0-2.534 1.65-4.718 3.013-6.857 1.362-2.139 2.501-4.839 1.426-7.134-1.213-2.559-10.32-6.279-11.752-2.585" transform="translate(86.389 139.229)"/>
  <path id="Path-1-89" fill="#ffb1d9" d="m-4.749-.429 1.218.806.189.125.035.022 1.445.956 3.375.568 2.968-.204S5.336.059 3.992.1a2.794 2.794 0 0 1-1.225-.354l-.185-.092a8.382 8.382 0 0 1-.58-.338A16.598 16.598 0 0 1 .18-2.048L-4.749-.429" transform="translate(101.149 233.656)"/>
  <path id="Path-1-90" fill="#070809" d="m-4.14-.52.188.125.035.022 1.446.957 3.375.566L3.872.947s.855-1.786-.489-1.745a2.805 2.805 0 0 1-1.225-.352c.236.184.434.385.453.554C2.666-.14.416.678.416.678L-2.755-.16s-.539-.152-1.276-.343l-.071-.019-.038.002" transform="translate(101.774 234.552)"/>
  <path id="Path-1-91" fill="#262c61" d="M-8.193-.296s2.6.568 4.348.405C-2.097-.053.915 1.451.915 1.451s1.018.478 4.148.682C8.193 2.337 8.193.75 8.193.75 7.836-1.408 2.89-2.119 2.737-2.151c.061.032.319.163.581.338.351.23.73.529.759.772C4.131-.589 1.882.234 1.882.234l-3.171-.836s-.539-.156-1.276-.347h-.07a27.308 27.308 0 0 0-3.325-.685C-7.326-1.781-8.024-.621-8.168-.359a.486.486 0 0 0-.025.063" transform="translate(100.404 235.107)"/>
  <path id="Path-1-92" fill="#ffb1d9" d="m-4.74 1.284 1.382 1.059s.402-.019 1.002-.039h.191a90.863 90.863 0 0 1 3.047-.063 9.716 9.716 0 0 1 1.943.108c.689.242 1.915-3.94 1.915-3.94L3.355-1.91l-.46-.108-.319-.076-1.126-.265-3.414.389-2.399 1.543-.377 1.711" transform="translate(55.964 176.204)"/>
  <path id="Path-1-93" fill="#070809" d="m-4.034 1.292 1.381 1.059s.402-.019 1.002-.038a1.213 1.213 0 0 1-.638-.571c-.893-2.477 3.538-3.535 3.538-3.535l2.064-.089.402-.02h.319l-.459-.108-.319-.076-1.126-.265-3.414.389-2.4 1.543-.35 1.711" transform="translate(55.259 176.196)"/>
  <path id="Path-1-94" fill="#262c61" d="M-7.581 2.844c.836.772 6.31 0 6.54-.019a3.437 3.437 0 0 1-1.241-.086 1.377 1.377 0 0 1-.957-.685C-4.132-.426.299-1.481.299-1.481l2.064-.089.399-.02 5.019-.216.243-1.381s-1.631.153-4.19.357c-1.439.118-3.19.249-5.082.373-5.287.351-6.544 3.778-6.544 3.778s-.641.733.211 1.523" transform="translate(56.081 175.761)"/>
  <path id="Path-1-95" fill="#ffb1d9" d="M-2.659 13.743c.034.076.074.148.121.217l1.219 1.785 3.171.319.035-1.256.533-18.897S4.615-16.763.468-16.033c-4.148.73-1.545 11.944-1.545 11.944s-.472 5.687-.804 7.396c-.322 1.651-1.767 8.364-.778 10.436" transform="translate(112.561 105.032)"/>
  <path id="Path-1-96" fill="#ffb1d9" d="m-4.757-2.212.903 1.543 2.019 3.452s3.663 1.342 4.601.319C3.28 2.544 3.835.596 4.224-1.042c.319-1.326.533-2.445.533-2.445l-9.514 1.275" transform="translate(107.541 167.921)"/>
  <path id="Path-1-97" fill="#070809" d="m-4.757-.141.903 1.542c.056-.048.108-.103.153-.162C-2.68-.062 1.815.961 4.224 1.044c.319-1.326.533-2.445.533-2.445l-9.514 1.26" transform="translate(107.541 165.852)"/>
  <path id="Path-1-98" fill="#070809" d="M-3.637 2.871a9.717 9.717 0 0 1 1.943.109C-1.005 3.222.22-.96.22-.96l-1.844-.434 5.019-.216.242-1.381s-1.63.153-4.189.357c-.529.305-1 .698-1.394 1.164l-.077.096c-1.069 1.31-1.464 2.999-1.614 4.245" transform="translate(60.483 175.565)"/>
  <path id="Path-1-99" fill="#070809" d="m-2.826.35 1.407.931C.681.901 2.598.305 2.825-.632a.323.323 0 0 0 0-.044c-.447-.345-.744-.605-.744-.605L-2.826.35" transform="translate(99.225 232.876)"/>
  <path id="Path-1-100" fill="#070809" d="M-2.766.649A48.882 48.882 0 0 0 2.766.056 27.151 27.151 0 0 0-.562-.636C-1.924-.783-2.622.378-2.766.649" transform="translate(95.005 234.108)"/>
  <path id="Path-1-101" fill="#262c61" d="M-27.067-19.431c0 1.017 2.805 1.667 2.805 1.667l8.541 7.596s5.366 2.397 8.78 5.849c3.414 3.453 6.426.488 6.426.488 3.618-.893 14.038-13.487 14.038-13.487s.243 14.383.731 15.438c.488 1.055-.163 3.94-.447 5.161a14.362 14.362 0 0 0-.204 3.085s-3.901 14.909-3.576 16.209c.325 1.301-2.116 7.396-2.116 7.396v5.078s9.556-.367 10.082-2.519c.527-2.151-2.396-3.088-2.396-3.088v-.53c1.915-.975 2.275-7.675 2.275-7.675s2.849-8.288 3.255-9.668c.405-1.381 0-3.456 0-3.456l.284-1.785s.609-1.221.609-1.463c.08-.619.318-1.206.692-1.705.447-.53-.488-1.789-.488-1.789l.814-2.113v-2.314l1.914-8.409s1.994-9.793 1.302-13.003c-.693-3.21.813-4.832.813-4.832-3.264 1.708-4.91-2.095-5.449-3.73-.137-.421-.204-.701-.204-.701s-4.483-1.651-8.656-1.256a9.972 9.972 0 0 0-2.486.526c-4.636 1.667-5.366 8.572-5.366 8.572L.799-19.632c-2.115 5.566-5.286 6.133-5.286 6.133s-7.441-4.995-7.658-5.241c-.217-.245-3.05-1.463-3.05-1.463a3.226 3.226 0 0 0-1.464-1.339c-.976-.408-1.056-1.912-1.056-1.912-.121-3.535-2.195-3.825-2.195-3.825-7.198-.6-7.157 6.834-7.157 7.848" transform="translate(84.066 199.479)"/>
  <path id="Path-1-102" fill="#ff4889" d="M-2.195 6.804h4.39V-6.804h-4.39V6.804" transform="translate(100.589 153.382)"/>
  <path id="Path-1-103" fill="#070809" d="M-2.195 6.804h4.39V-6.804h-4.39V6.804" transform="translate(100.589 153.382)"/>
  <path id="Path-1-104" fill="#070809" d="M-2.273-1.175a.14.14 0 0 0 0 .029c.034.076.074.148.121.217L-.933.856l3.171.319.035-1.256C1.284-.158-.968-.429-2.273-1.175" transform="translate(112.172 119.921)"/>
  <path id="Path-1-105" fill="#ff4889" d="M-2.171-25.307s.163 7.147-1.627 8.123c-1.79.975-2.486 6.056-2.486 6.056S-.86-7.564.35-5.996C1.559-4.428 4.335-.692 3.764.201c-.572.892 1.384 4.957 1.384 4.957s-3.58 7.312-2.766 10.076c.814 2.764.893 10.073.893 10.073h1.548s-.488-6.012-.488-8.451c0-2.438 1.624-11.131 1.624-11.131s.733-8.53 0-8.772C5.225-3.29.918-6.704.592-8.25.267-9.796 2.87-24.188 2.87-24.188s-3.334-.143-5.041-1.119" transform="translate(112.195 144.298)"/>
  <path id="Path-1-106" fill="#070809" d="M-9.112 4.716c.148.995.51 1.945 1.062 2.786l3.005-.51s9.027-2.034 10.89-2.199a11.658 11.658 0 0 0 3.267-.931 14.393 14.393 0 0 0-4.036-6.615L3.931-3.814a19.195 19.195 0 0 0-5.775-3.688c.134.111 9.603 8.189 7.529 9.773C3.611 3.855-1.972-.002-1.972-.002l-6.349-5.45-.23-.198-.367.571c.187.076.369.164.546.261A9.337 9.337 0 0 1-3.905.728c1.304 4.383-5.207 3.988-5.207 3.988" transform="translate(107.423 140.599)"/>
  <path id="Path-1-107" fill="#2d305a" d="M-4.655-.419s6.017 3.331 7.479 1.463c.319-.412.992-.59 1.831-.638-.137-.421-.204-.701-.204-.701S-.032-1.946-4.205-1.551l-.45 1.132" transform="translate(101.013 166.047)"/>
  <path id="Path-1-108" fill="#eceffb" d="m-7.323-15.307 6.579 5.654s5.561 3.87 7.658 2.273C9.01-8.977-.619-17.156-.619-17.156a19.47 19.47 0 0 1 5.771 3.678l1.146 1.062c3.012 2.789 3.691 2.789 3.793 6.888.026 1.011-.319 2.461-.583 2.722-.977.957-1.66 7.903-1.51 8.715.15.813-1.818 7.829-1.18 9.78.638 1.951-7.977-.975-9.435.896-1.458 1.871-7.475-1.463-7.475-1.463s3.334-8.534 4.148-9.101c.813-.567 1.79-4.957 0-6.987-1.79-2.031-1.95-3.982-1.95-3.982s6.509.402 5.204-3.981a9.2 9.2 0 0 0-5.003-5.808l.37-.57" transform="translate(106.45 150.262)"/>
  <path id="Path-1-109" fill="#070809" d="M3.412-3.109S.888 1.644-2.376 2.878a4.767 4.767 0 0 1-.319.105c-3.408 1.036 6.362-4.619 6.107-6.092" transform="translate(104.496 152.447)"/>
  <path id="Path-1-110" fill="#ffb1d9" d="M-5.62-3.713S-4.401-.624-3.425.431c.976 1.055 8.212 11.619 8.212 11.619l.613 1.275.527 1.087 4.635-.488.319-1.868-.178-.216c-.466-.558-1.736-2.056-2.588-2.71-1.056-.81-3.171-3.49-3.171-3.49S-1.642-1.188-2.13-3.056c-.488-1.868-7.077-13.07-8.538-11.132C-12.129-12.25-5.62-3.713-5.62-3.713" transform="translate(78.234 111.003)"/>
  <path id="Path-1-111" fill="#070809" d="M3.46-2.977a3.642 3.642 0 0 0-1.637.236C.674-2.183.458-.675-.18.431c-.747 1.294-2.17 2.094-3.634 2.391a8.403 8.403 0 0 1-.881.121c.933.09 1.874.05 2.795-.121C-.436 2.525.987 1.725 1.734.431c.638-1.106.855-2.614 2.004-3.172.302-.136.626-.211.957-.223L3.46-2.977" transform="translate(82.605 160.513)"/>
  <path id="Path-1-112" fill="#070809" d="M.438-3.182c0-2.534 1.649-4.718 3.009-6.857 1.359-2.138 2.501-4.838 1.426-7.133-.919-1.961-6.458-4.591-9.655-4.071 3.13.405 6.988 2.464 7.74 4.071 1.076 2.295-.067 4.995-1.426 7.133C.173-7.9-1.482-5.716-1.476-3.182c0 3.271-.22 5.738-1.12 8.897-.258.908 2.233 2.282 1.85 3.143-1.295 2.869-.689 6.177-.896 9.314a3.868 3.868 0 0 1-.437 1.76c-.638 1.048-1.947 1.319-3.22 1.377h1.114c1.487 0 3.251-.115 4.02-1.387a3.867 3.867 0 0 0 .437-1.759c.207-3.137-.398-6.449.897-9.315.389-.86-2.109-2.231-1.851-3.143C.218 2.569.444.089.438-3.182" transform="translate(96.96 136.265)"/>
  <path id="Path-1-113" fill="#070809" d="m-2.741.199.527 1.087L2.422.799l.319-1.869-.179-.216C2.067-1.044-1.637.737-2.741.199" transform="translate(86.375 124.122)"/>
  <path id="Path-1-114" fill="#070809" d="M8.426-9.786s-1.138-1.785-1.789-1.301c-.651.485-.904-1.463-1.277-1.138-.373.325-1.461 1.231-1.914-.035-.354-1.007-4.209-7.379-5.772-9.942-.402-.663-.654-1.071-.654-1.071s-4.39 2.193-5.446 1.463v1.543l.893.083 4.786 8.925s1.506 2.394 1.404 3.229C-1.445-7.195.588-3.538.913-3.296c.325.242 3.828 4.306 3.828 4.306s1.79 8.776.243 11.215C3.436 14.663.756 16.448.756 16.448s-.807 2.356-.689 2.601c.118.246-.938 1.301-.45 1.626C.105 21 .756 23.273.756 23.273s2.278-3.656 3.51-4.224c1.232-.567 2.807-8.045 2.807-8.045s.45-4.406.485-7.249C7.594.912 7.45-9.786 8.426-9.786" transform="translate(92.325 146.326)"/>
  <path id="Path-1-115" fill="#ff4889" d="M8.426-9.796s-1.136-1.784-1.787-1.3c-.651.485-.906-1.463-1.276-1.138-.37.325-1.458 1.23-1.914-.036-.357-1.007-4.212-7.379-5.772-9.942l-.654-1.071s-4.39 2.193-5.449 1.463v1.543l.896.084 4.786 8.925S-1.235-8.875-1.34-8.04C-1.445-7.205.574-3.547.915-3.305c.341.242 3.829 4.306 3.829 4.306s1.79 8.775.246 11.214a14.966 14.966 0 0 1-2.945 3.258A5.684 5.684 0 0 0 .131 18.54a1.205 1.205 0 0 0-.058.509c.118.242-.938 1.301-.45 1.627.488.325 1.146 2.607 1.146 2.607s2.277-3.656 3.509-4.224c1.232-.567 2.811-8.045 2.811-8.045s.446-4.407.485-7.25c.038-2.843-.106-13.56.852-13.56" transform="translate(92.08 146.335)"/>
  <path id="Path-1-116" fill="#070809" d="M-2.278-.925S1.139-.288 2.508.697c1.369.985-5.204-1.542-5.204-1.542l.418-.08" transform="translate(91.642 174.435)"/>
  <path id="Path-1-117" fill="#070809" d="M-1.501-7.538S2.063-4.57 1.425-1.889C.786.792-.86 7.538-.86 7.538l-.641-15.076" transform="translate(99.081 189.697)"/>
  <path id="Path-1-118" fill="#070809" d="M2.356-.693S-2.667-.144-2.341.506c.325.65 4.697-.599 4.697-.599v-.6" transform="translate(64.056 177.148)"/>
  <path id="Path-1-119" fill="#070809" d="M1.25.737s.319.405-1.544 0S-.782-.917-.782-.917L1.25.737" transform="translate(103.722 200.395)"/>
  <path id="Path-1-120" fill="#070809" d="M2.074 0S-.478.404-1.847 0c-1.369-.405 3.921 0 3.921 0" transform="translate(102.26 206.74)"/>
  <path id="Path-1-121" fill="#070809" d="M3.253-.537S2.807-1.025.57-.132c-2.237.893-3.13.934-3.781.638C-3.862.209 3.253-.537 3.253-.537" transform="translate(95.83 229.215)"/>
  <path id="Path-1-122" fill="#070809" d="m1.586-2.204-3.172 4.408s1.707-3.86 3.172-4.408" transform="translate(99.979 177.967)"/>
  <path id="Path-1-123" fill="#070809" d="M2.308-1.533S2.171-.069.126.501c-2.045.571-2.434 1.032-2.434 1.032" transform="translate(93.093 136.772)"/>
  <path id="Path-1-124" fill="#070809" d="M2.758-.782S.059 1.131-2.758.726L2.758-.782" transform="translate(87.327 125.416)"/>
  <path id="Path-1-125" fill="#070809" d="M-1.34.809s.788.494 2.68-1.667L-1.34.809" transform="translate(93.48 164.775)"/>
  <path id="Path-1-126" fill="#070809" d="M1.19 1.302C1.266.907.992.54.733.231L.204-.407c-.104-.13-.22-.25-.348-.357-.319-.245-.727-.318-1.059-.538" transform="translate(110.601 141.368)"/>
  <path id="Path-1-127" fill="#6aaedc" d="M0 2.167c7.085 0 12.829-.971 12.829-2.168S7.085-2.167 0-2.167c-7.085 0-12.829.969-12.829 2.166S-7.085 2.167 0 2.167" transform="translate(292.319 236.781)"/>
  <path id="Path-1-128" fill="#6aaedc" d="M5.301 1.956A3.704 3.704 0 0 0 6.523.111c.159-.73-.153-1.594-.855-1.878-.785-.3-1.624.246-2.259.794C2.774-.425 2.043.203 1.214.085a3.35 3.35 0 0 0 1.033-3.127 1.304 1.304 0 0 0-.287-.637c-.437-.466-1.225-.268-1.748.098C-1.447-2.414-1.91-.16-1.919 1.864c-.166-.73-.026-1.492-.029-2.232-.003-.739-.211-1.593-.846-1.985a2.521 2.521 0 0 0-1.276-.3c-.743-.029-1.576.048-2.083.593-.638.676-.469 1.81.079 2.55.549.739 1.388 1.214 2.16 1.728.618.368 1.145.87 1.541 1.469.048.084.087.173.115.265H2.42a13.042 13.042 0 0 0 2.881-1.996" transform="translate(292.324 231.28)"/>
  <g style="transform:translate(-3.2px,-4.8px);animation:4.233s linear both a5_t,4.233s linear both a5_mo;offset-path:path(&quot;M51.224,71.0097C51.224,66.3427,61.6998,38.4293,61.6998,38.4293C61.6998,38.4293,80.2828,73.9684,86.375,96.3296C86.375,101.966,51,68.9703,51,71L51,71&quot;);offset-rotate:0deg">
    <path id="Path-1-129" fill="#fff" d="M-4.702-9.815A15.395 15.395 0 0 1 2.792-1.2a15.342 15.342 0 0 1-.514 11.393c-.364.826.974 1.259 1.335.439A16.77 16.77 0 0 0 4.1-1.65a16.828 16.828 0 0 0-8.022-9.332c-.793-.419-1.579.745-.78 1.167" transform="translate(7 -8)"/>
  </g>
  <g style="transform:translate(-3.2px,-4.8px);animation:4.233s linear both a6_t,4.233s linear both a6_mo;offset-path:path(&quot;M51.224,71.0097C51.224,66.3427,61.6998,38.4293,61.6998,38.4293C61.6998,38.4293,80.2828,73.9684,86.375,96.3296C86.375,101.966,51,68.9703,51,71L51,71&quot;);offset-rotate:0deg">
    <path id="Path-1-130" fill="#00a5ad" d="M18.251-7.716C14.021-20.325.958-27.333-7.635-24.466c-8.593 2.867-14.798 16.302-10.568 28.911 3.915 11.671 15.78 18.408 23.941 17.206a.944.944 0 0 0-.114.331l-.249 2.075a.94.94 0 0 0 .346.843.944.944 0 0 0 .901.149l4.204-1.504a.936.936 0 0 0 .58-1.155.939.939 0 0 0-.248-.4l-1.516-1.445a.923.923 0 0 0-.177-.127c7.279-3.912 12.71-16.438 8.786-28.134"/>
  </g>
  <g style="transform:translate(-127.003px,-93.509px);animation:4.233s linear both a8_t,4.233s linear both a8_mo;offset-path:path(&quot;M127.003,93.509C127.003,89.676,127.003,70.51,127.003,70.51C127.003,70.51,127.003,89.676,127.003,93.509L127.003,93.509&quot;);offset-rotate:0deg">
    <path id="Path-1-131" fill="#4b9cd3" d="M18.054-9.658C12.686-22.033.223-28.512-9.784-24.13c-22.295 9.691-6.386 51.484 16.579 45.762l.997 3.868 6.641-2.908-2.141-3.367c7.992-5.449 10.628-17.663 5.762-28.883" transform="translate(121.503 64.009)"/>
  </g>
  <g style="transform:translate(-127.003px,-93.509px);animation:4.233s linear both a9_t,4.233s linear both a9_mo;offset-path:path(&quot;M127.003,93.509C127.003,89.676,127.003,70.51,127.003,70.51C127.003,70.51,127.003,89.676,127.003,93.509L127.003,93.509&quot;);offset-rotate:0deg">
    <path id="Path-1-132" fill="#fff" d="M4.5 6.429 1.906 7.5A42.529 42.529 0 0 1-4.5-6.429L-1.906-7.5C-.814-2.221 1.322 2.423 4.5 6.429" transform="translate(107.503 67.009)"/>
  </g>
  <g style="transform:translate(-127.003px,-93.509px);animation:4.233s linear both a10_t,4.233s linear both a10_mo;offset-path:path(&quot;M127.003,93.509C127.003,89.676,127.003,70.51,127.003,70.51C127.003,70.51,127.003,89.676,127.003,93.509L127.003,93.509&quot;);offset-rotate:0deg">
    <path id="Path-1-133" fill="#262c61" d="M3.426-2.489-4.161.808l.735 1.681L4.161-.808l-.735-1.681" transform="translate(131.646 85.273)"/>
  </g>
  <g style="transform:translate(-127.003px,-93.509px);animation:4.233s linear both a11_t,4.233s linear both a11_mo;offset-path:path(&quot;M127.003,93.509C127.003,89.676,127.003,70.51,127.003,70.51C127.003,70.51,127.003,89.676,127.003,93.509L127.003,93.509&quot;);offset-rotate:0deg">
    <path id="Path-1-134" fill="#a4a4e2" stroke="#a4a4e2" stroke-linecap="round" stroke-linejoin="round" d="M132.063 85.625 156.75 144"/>
  </g>
  <g style="transform:translate(-272.824px,-50.406px);animation:4.233s linear both a13_t,4.233s linear both a13_mo;offset-path:path(&quot;M272.824,50.406C272.824,47.088,272.824,30.5,272.824,30.5C272.824,30.5,272.824,31.9527,272.824,34.09C272.824,35.8057,272.824,57.8097,272.824,60C272.824,64.2864,272.824,48.861,272.824,50.406L272.824,50.406&quot;);offset-rotate:0deg">
    <path id="Path-1-135" fill="#4b9cd3" d="M18.251-7.716C14.021-20.325.959-27.333-7.634-24.466c-8.594 2.867-14.798 16.302-10.568 28.911 3.915 11.671 15.779 18.408 23.941 17.206a.912.912 0 0 0-.114.331l-.25 2.075a.928.928 0 0 0 .347.843.94.94 0 0 0 .9.149l4.205-1.504a.94.94 0 0 0 .6-.685.936.936 0 0 0-.269-.87l-1.515-1.445a.93.93 0 0 0-.178-.127c7.28-3.912 12.71-16.438 8.786-28.134" transform="translate(270.824 45.906)"/>
  </g>
  <g style="transform:translate(-272.824px,-50.406px);animation:4.233s linear both a14_t,4.233s linear both a14_mo;offset-path:path(&quot;M272.824,50.406C272.824,47.088,272.824,30.5,272.824,30.5C272.824,30.5,272.824,31.9527,272.824,34.09C272.824,35.8057,272.824,57.8097,272.824,60C272.824,64.2864,272.824,48.861,272.824,50.406L272.824,50.406&quot;);offset-rotate:0deg">
    <path id="Path-1-136" fill="#fff" d="M-4.702-9.815A15.397 15.397 0 0 1 2.793-1.2a15.347 15.347 0 0 1-.515 11.393c-.364.826.974 1.259 1.335.439A16.774 16.774 0 0 0 4.101-1.65a16.83 16.83 0 0 0-8.023-9.332c-.793-.419-1.579.745-.78 1.167" transform="translate(278.463 38.729)"/>
  </g>
  <g style="transform:translate(-172.873px,-31.113px);animation:4.233s linear both a16_t,4.233s linear both a16_mo;offset-path:path(&quot;M172.873,33C172.873,36.333,172.873,75,172.873,75C172.873,75,172.873,36.333,172.873,33L172.873,33&quot;);offset-rotate:0deg">
    <path id="Path-1-137" fill="#f6f9f9" d="M18.251-7.716C14.021-20.325.959-27.333-7.634-24.466c-8.594 2.867-14.798 16.302-10.568 28.911 3.915 11.671 15.779 18.408 23.941 17.206a.906.906 0 0 0-.114.331l-.25 2.075a.93.93 0 0 0 .347.843.94.94 0 0 0 .9.149l4.205-1.504a.94.94 0 0 0 .6-.685.936.936 0 0 0-.269-.87l-1.515-1.445a.93.93 0 0 0-.178-.127c7.28-3.912 12.71-16.438 8.786-28.134" transform="translate(171.373 25.613)"/>
  </g>
  <g style="transform:translate(-172.873px,-31.113px);animation:4.233s linear both a17_t,4.233s linear both a17_mo;offset-path:path(&quot;M172.873,33C172.873,36.333,172.873,75,172.873,75C172.873,75,172.873,36.333,172.873,33L172.873,33&quot;);offset-rotate:0deg">
    <path id="Path-1-138" fill="#fff" d="M-4.702-9.815A15.397 15.397 0 0 1 2.793-1.2a15.347 15.347 0 0 1-.515 11.393c-.364.826.974 1.259 1.335.439A16.774 16.774 0 0 0 4.101-1.65a16.83 16.83 0 0 0-8.023-9.332c-.793-.419-1.579.745-.78 1.167" transform="translate(179.012 18.435)"/>
  </g>
  <g transform="matrix(.75 0 0 .75 115.957 110.515)">
    <path id="Rectangle's-solid-fill" fill="#0f0e1a" fill-opacity=".1" d="M81 0c0 44.735-44.735 81-81 81-44.735 0-81-36.265-81-81s44.735-81 81-81c44.735 0 81 36.265 81 81Z" transform="translate(81 80.993)"/>
  </g>
  <g transform="matrix(.75 0 0 .75 115.957 110.515)">
    <g id="Path's-solid-fill">
      <path fill="#4793c5" d="M111.7 57.766c20.876 0 37.8 16.923 37.8 37.8 0 20.876-16.924 37.8-37.8 37.8h-.11c-20.877 0-37.8-16.924-37.8-37.8 0-20.877 16.923-37.8 37.8-37.8h.11"/>
      <path fill="#4793c5" d="M111.55 69.6c-10.3 0-17.078 5.724-17.078 15.285 0 7.74 4.758 12.228 14.014 15.48 8.017 2.797 10.233 4.229 10.233 7.87 0 3.253-2.281 4.814-5.345 4.814-5.41 0-8.017-3.122-8.864-8.846L92.517 105.7c1.368 10.602 8.147 16.001 20.14 16.001 11.472 0 18.316-6.05 18.316-15.48 0-8.326-4.563-12.359-15.383-15.806-7.3-2.342-9.712-4.163-9.712-7.61 0-3.122 1.826-5.204 5.15-5.204 4.302 0 6.713 3.188 7.17 9.302l11.602-2.407c-1.434-9.692-7.822-14.895-18.25-14.895"/>
    </g>
  </g>
  <g transform="matrix(.75 0 0 .75 115.957 110.515)">
    <path id="Rectangle's-solid-fill-2" fill="#0a062d" d="M54.08 0c0 29.823-29.824 54-54 54h-.16c-29.823 0-54-24.177-54-54s29.824-54 54-54h.16c29.823 0 54 24.177 54 54Z" transform="translate(67.08 81)"/>
  </g>
  <g transform="matrix(.75 0 0 .75 115.957 110.515)">
    <path id="Path's-solid-fill-2" fill="#67b0e0" fill-opacity=".3" stroke="#67b0e0" stroke-linecap="round" stroke-linejoin="round" d="M30.194 75.6c17.733 0 30.195-8.517 30.195-27.752V0H42.654v47.083c0 11.292-5.176 15.98-12.46 15.98-7.286 0-12.462-4.688-12.462-15.98V0H0v47.848C0 67.083 12.557 75.6 30.194 75.6c0 0 0 0 0 0s0 0 0 0" transform="translate(36.935 43.2)"/>
  </g>
  <g transform="matrix(.75 0 0 .75 115.957 110.515)">
    <path id="Path's-solid-fill-3" fill="#4793c5" fill-opacity=".05" d="M18.033 0v47.233c0 5.337 1.16 9.19 3.163 11.76 2.19 2.807 5.385 4.07 9.148 4.07s6.96-1.263 9.149-4.07c2.003-2.57 3.162-6.423 3.162-11.76V0h18.033v47.998c0 9.274-2.886 16.067-7.849 20.628-5.384 4.949-13.22 7.274-22.495 7.274-9.236 0-17.082-2.33-22.48-7.293C2.9 64.047 0 57.26 0 47.998V0h18.033" transform="translate(36.785 43.05)"/>
  </g>
  <g transform="matrix(.75 0 0 .75 115.957 110.515)">
    <path id="Path's-solid-stroke" fill="none" stroke="#67b0e0" stroke-linecap="round" stroke-linejoin="round" stroke-width=".3" d="M18.033 0v47.233c0 5.337 1.16 9.19 3.163 11.76 2.19 2.807 5.385 4.07 9.148 4.07s6.96-1.263 9.149-4.07c2.003-2.57 3.162-6.423 3.162-11.76V0h18.033v47.998c0 9.274-2.886 16.067-7.849 20.628-5.384 4.949-13.22 7.274-22.495 7.274-9.236 0-17.082-2.33-22.48-7.293C2.9 64.047 0 57.26 0 47.998V0h18.033s0 0 0 0 0 0 0 0" transform="translate(36.785 43.05)"/>
  </g>
  <g transform="matrix(.75 0 0 .75 115.957 110.515)">
    <path id="Path's-solid-fill-6" fill="#fff" d="M18.043 50C28.32 50 34.45 44.195 34.45 35.144c0-7.99-4.087-11.86-13.78-15.169-6.54-2.247-8.7-3.995-8.7-7.303 0-2.997 1.635-4.994 4.613-4.994 3.854 0 6.014 3.059 6.423 8.926l10.393-2.31C32.115 4.995 26.393 0 17.05 0 7.824 0 1.752 5.493 1.752 14.67c0 7.427 4.262 11.734 12.554 14.856 7.182 2.684 9.167 4.057 9.167 7.553 0 3.12-2.044 4.619-4.788 4.619-4.846 0-7.182-2.996-7.941-8.49-3.581.48-7.163.958-10.744 1.436C1.226 44.82 7.299 50 18.043 50" transform="translate(95.12 71.3)"/>
  </g>
  <g transform="matrix(.75 0 0 .75 115.957 110.515)">
    <path id="Path's-solid-fill-7" fill="rgba(184,184,188,0.86)" d="M18.567 48.1c10.576 0 16.885-5.585 16.885-14.292 0-7.686-4.206-11.41-14.18-14.592-6.73-2.162-8.954-3.843-8.954-7.026 0-2.882 1.683-4.804 4.747-4.804 3.966 0 6.19 2.943 6.61 8.587 3.565-.74 7.13-1.48 10.695-2.222C33.048 4.804 27.16 0 17.546 0 8.052 0 1.803 5.284 1.803 14.112c0 7.146 4.386 11.29 12.919 14.292 7.39 2.582 9.433 3.903 9.433 7.266 0 3.002-2.103 4.443-4.927 4.443-4.987 0-7.39-2.882-8.172-8.166L0 33.327C1.262 43.117 7.511 48.1 18.567 48.1" transform="translate(94.019 72.3)"/>
  </g>
</svg>
